<svg width="38" height="33" viewBox="0 0 38 33" fill="none" xmlns="http://www.w3.org/2000/svg">
<path d="M36.2891 5.35105C36.0459 5.20511 35.8513 5.15646 35.6081 5.15646C35.9486 4.28084 35.9486 3.30792 35.6567 2.48094C34.7811 2.67552 33.9541 3.21063 33.419 3.94032C33.2731 3.74573 33.1272 3.55115 32.8839 3.45386C32.1056 3.01605 31.1813 3.30792 30.7435 4.08625C30.3057 4.86459 30.5976 5.78886 31.3273 6.22667C31.7164 6.4699 32.1542 6.4699 32.5434 6.37261C31.8624 7.1023 30.8408 7.58876 29.7219 7.58876C27.9707 7.58876 26.5113 6.42126 26.0735 4.81594C26.3654 5.10782 26.7545 5.3024 27.1924 5.3024C28.068 5.3024 28.749 4.57271 28.749 3.74573C28.749 2.87011 28.068 2.18906 27.1924 2.18906C26.9491 2.18906 26.7059 2.23771 26.4627 2.38365C26.3167 1.45938 25.8789 0.632396 25.1979 0C24.5168 0.632396 24.079 1.45938 23.9331 2.38365C23.7385 2.28636 23.4953 2.18906 23.2034 2.18906C22.3278 2.18906 21.6467 2.91875 21.6467 3.74573C21.6467 4.62136 22.3278 5.3024 23.2034 5.3024C23.6412 5.3024 24.0304 5.10782 24.3222 4.81594C23.8358 6.42126 22.3764 7.58876 20.6738 7.58876C19.5549 7.58876 18.582 7.1023 17.8523 6.37261C18.2415 6.51855 18.6793 6.4699 19.0685 6.22667C19.8468 5.78886 20.09 4.86459 19.6522 4.08625C19.2144 3.30792 18.2901 3.06469 17.5118 3.45386C17.2686 3.5998 17.1226 3.74573 16.9767 3.94032C16.393 3.21063 15.6146 2.67552 14.739 2.48094C14.4471 3.35657 14.4471 4.28084 14.7876 5.15646C14.5444 5.15646 14.3012 5.20511 14.1066 5.35105C13.3283 5.78886 13.085 6.71313 13.5228 7.49147C13.9607 8.2698 14.8849 8.51303 15.6633 8.12386C15.9551 7.97792 16.1497 7.7347 16.2957 7.49147C16.7335 8.31845 16.9767 9.24272 16.9767 10.2643C16.9767 10.6534 16.9281 10.994 16.8794 11.3345C16.8794 11.3831 16.9281 11.4804 16.9767 11.4804C19.3117 11.8209 22.1332 12.0155 25.1492 12.0155C28.1653 12.0155 30.9867 11.8209 33.3217 11.4804C33.3704 11.4804 33.419 11.4318 33.419 11.3345C33.3704 10.994 33.3217 10.6048 33.3217 10.2643C33.3217 9.24272 33.565 8.31845 34.0028 7.49147C34.1487 7.7347 34.3433 7.97792 34.6352 8.12386C35.4135 8.56168 36.3378 8.2698 36.7756 7.49147C37.3107 6.71313 37.0675 5.78886 36.2891 5.35105Z" fill="white"/>
<path d="M0.729689 25.0528V19.3612C0.729689 17.61 0 15.5668 0 15.4695V15.3723H6.12939V15.4695C6.12939 15.5668 5.3997 17.61 5.3997 19.3612V25.6365C5.3997 29.0904 6.81043 30.5498 9.04814 30.5498C11.2859 30.5498 12.6966 29.0417 12.6966 25.8311V21.3557C12.6966 18.6802 11.2372 15.6641 11.2372 15.5182V15.3723H15.7126V15.5182C15.7126 15.6641 14.2533 18.6802 14.2533 21.3557V25.8311C14.2533 30.5984 11.3345 32.4956 7.78335 32.4956C4.42678 32.447 0.729689 30.7444 0.729689 25.0528Z" fill="white"/>
<path d="M23.1072 32.155H16.9778V32.0577C16.9778 31.9604 17.7075 29.9173 17.7075 28.166V19.3611C17.7075 17.6098 16.9778 15.5667 16.9778 15.4694V15.3721H23.1072V15.4694C23.1072 15.5667 22.3775 17.6098 22.3775 19.3611V28.166C22.3775 29.9173 23.1072 31.9604 23.1072 32.0577V32.155ZM25.7827 28.7011L22.6694 23.8852C22.6207 23.7879 22.5721 23.7392 22.718 23.5933L24.7125 21.7447L26.9016 19.7016C28.8474 17.9017 28.0204 15.6154 28.0204 15.4694V15.3235H33.566V15.4208C32.5931 16.0532 31.5229 17.0261 30.2095 18.2422L26.5124 21.6961L31.4256 28.7497C32.4472 30.2091 34.0525 31.9604 34.0525 32.0577V32.155H26.8529C26.8529 32.0577 26.7556 30.2091 25.7827 28.7011Z" fill="white"/>
</svg>
