<svg width="14" height="15" viewBox="0 0 14 15" fill="none" xmlns="http://www.w3.org/2000/svg">
<path fill-rule="evenodd" clip-rule="evenodd" d="M2.3335 2.16659C1.96531 2.16659 1.66683 2.46506 1.66683 2.83325V12.1666C1.66683 12.5348 1.96531 12.8333 2.3335 12.8333H8.3335V2.16659H2.3335ZM2.3335 0.833252C1.22893 0.833252 0.333496 1.72868 0.333496 2.83325V12.1666C0.333496 13.2712 1.22893 14.1666 2.3335 14.1666H11.6668C12.7714 14.1666 13.6668 13.2712 13.6668 12.1666V2.83325C13.6668 1.72868 12.7714 0.833252 11.6668 0.833252H2.3335ZM9.66683 2.16659V12.8333H11.6668C12.035 12.8333 12.3335 12.5348 12.3335 12.1666V2.83325C12.3335 2.46506 12.035 2.16659 11.6668 2.16659H9.66683ZM3.86209 5.02851C4.12244 4.76816 4.54455 4.76816 4.8049 5.02851L6.8049 7.02851C7.06525 7.28886 7.06525 7.71097 6.8049 7.97132L4.8049 9.97132C4.54455 10.2317 4.12244 10.2317 3.86209 9.97132C3.60174 9.71097 3.60174 9.28886 3.86209 9.02851L5.39069 7.49992L3.86209 5.97132C3.60174 5.71097 3.60174 5.28886 3.86209 5.02851Z" fill="#52525B"/>
</svg>
