<svg width="16" height="16" viewBox="0 0 16 16" fill="none" xmlns="http://www.w3.org/2000/svg">
<path fill-rule="evenodd" clip-rule="evenodd" d="M12.2422 2.81531C12.5026 2.555 12.9247 2.55506 13.185 2.81545C14.5598 4.19065 15.3321 6.05558 15.3321 8.00012C15.3321 9.94465 14.5598 11.8096 13.185 13.1848C12.9247 13.4452 12.5026 13.4452 12.2422 13.1849C11.9818 12.9246 11.9818 12.5025 12.2421 12.2421C13.3669 11.117 13.9988 9.5911 13.9988 8.00012C13.9988 6.40913 13.3669 4.88328 12.2421 3.75812C11.9818 3.49773 11.9818 3.07562 12.2422 2.81531ZM7.62245 2.73263C7.85343 2.84364 8.00033 3.07723 8.00033 3.3335V12.6668C8.00033 12.9231 7.85343 13.1567 7.62245 13.2677C7.39147 13.3787 7.11731 13.3475 6.9172 13.1874L3.76647 10.6668H1.33366C0.965469 10.6668 0.666992 10.3684 0.666992 10.0002V6.00016C0.666992 5.63197 0.965469 5.3335 1.33366 5.3335H3.76647L6.9172 2.81292C7.11731 2.65283 7.39147 2.62161 7.62245 2.73263ZM6.66699 4.72058L4.41679 6.52074C4.29858 6.61531 4.15171 6.66683 4.00033 6.66683H2.00033V9.3335H4.00033C4.15171 9.3335 4.29858 9.38502 4.41679 9.47958L6.66699 11.2797V4.72058ZM9.88902 5.16866C10.1494 4.90835 10.5715 4.90841 10.8318 5.1688C11.5817 5.91891 12.003 6.93615 12.003 7.9968C12.003 9.05746 11.5817 10.0747 10.8318 10.8248C10.5715 11.0852 10.1494 11.0853 9.88902 10.8249C9.62863 10.5646 9.62856 10.1425 9.88888 9.88214C10.3888 9.38206 10.6696 8.70391 10.6696 7.9968C10.6696 7.2897 10.3888 6.61154 9.88888 6.11147C9.62856 5.85108 9.62863 5.42897 9.88902 5.16866Z" fill="#1E293B"/>
</svg>
