<svg width="15" height="12" viewBox="0 0 15 12" fill="none" xmlns="http://www.w3.org/2000/svg">
<path fill-rule="evenodd" clip-rule="evenodd" d="M4 0.666667C4 0.298477 4.29848 0 4.66667 0H7.33333C7.70152 0 8 0.298477 8 0.666667V2.66667H11.3333C12.4379 2.66667 13.3333 3.5621 13.3333 4.66667V6.66667H14C14.3682 6.66667 14.6667 6.96514 14.6667 7.33333C14.6667 7.70152 14.3682 8 14 8H13.3333V10C13.3333 11.1046 12.4379 12 11.3333 12H3.33333C2.22876 12 1.33333 11.1046 1.33333 10V8H0.666667C0.298477 8 0 7.70152 0 7.33333C0 6.96514 0.298477 6.66667 0.666667 6.66667H1.33333V4.66667C1.33333 3.5621 2.22876 2.66667 3.33333 2.66667H6.66667V1.33333H4.66667C4.29848 1.33333 4 1.03486 4 0.666667ZM3.33333 4C2.96514 4 2.66667 4.29848 2.66667 4.66667V10C2.66667 10.3682 2.96514 10.6667 3.33333 10.6667H11.3333C11.7015 10.6667 12 10.3682 12 10V4.66667C12 4.29848 11.7015 4 11.3333 4H3.33333ZM5.33333 6C5.70152 6 6 6.29848 6 6.66667V8C6 8.36819 5.70152 8.66667 5.33333 8.66667C4.96514 8.66667 4.66667 8.36819 4.66667 8V6.66667C4.66667 6.29848 4.96514 6 5.33333 6ZM9.33333 6C9.70152 6 10 6.29848 10 6.66667V8C10 8.36819 9.70152 8.66667 9.33333 8.66667C8.96514 8.66667 8.66667 8.36819 8.66667 8V6.66667C8.66667 6.29848 8.96514 6 9.33333 6Z" fill="#0EA5E9"/>
</svg>
