<svg width="18" height="19" viewBox="0 0 18 19" fill="none" xmlns="http://www.w3.org/2000/svg">
<path d="M0.5 9.5C0.5 4.80558 4.30558 1 9 1C13.6944 1 17.5 4.80558 17.5 9.5C17.5 14.1944 13.6944 18 9 18C4.30558 18 0.5 14.1944 0.5 9.5Z" stroke="#64748B"/>
<path fill-rule="evenodd" clip-rule="evenodd" d="M6.5 5.5C6.5 5.22386 6.72386 5 7 5H9C9.27614 5 9.5 5.22386 9.5 5.5V7H12C12.8284 7 13.5 7.67157 13.5 8.5V10H14C14.2761 10 14.5 10.2239 14.5 10.5C14.5 10.7761 14.2761 11 14 11H13.5V12.5C13.5 13.3284 12.8284 14 12 14H6C5.17157 14 4.5 13.3284 4.5 12.5V11H4C3.72386 11 3.5 10.7761 3.5 10.5C3.5 10.2239 3.72386 10 4 10H4.5V8.5C4.5 7.67157 5.17157 7 6 7H8.5V6H7C6.72386 6 6.5 5.77614 6.5 5.5ZM6 8C5.72386 8 5.5 8.22386 5.5 8.5V12.5C5.5 12.7761 5.72386 13 6 13H12C12.2761 13 12.5 12.7761 12.5 12.5V8.5C12.5 8.22386 12.2761 8 12 8H6ZM7.5 9.5C7.77614 9.5 8 9.72386 8 10V11C8 11.2761 7.77614 11.5 7.5 11.5C7.22386 11.5 7 11.2761 7 11V10C7 9.72386 7.22386 9.5 7.5 9.5ZM10.5 9.5C10.7761 9.5 11 9.72386 11 10V11C11 11.2761 10.7761 11.5 10.5 11.5C10.2239 11.5 10 11.2761 10 11V10C10 9.72386 10.2239 9.5 10.5 9.5Z" fill="#64748B"/>
</svg>
