<svg viewBox="0 0 38 33" fill="none" xmlns="http://www.w3.org/2000/svg">
<path d="M1.58301 9.9939H36.6304" stroke="currentColor" stroke-width="2.5" stroke-linecap="round" stroke-linejoin="round"/>
<path d="M1.58301 1.25H28.2495" stroke="currentColor" stroke-width="2.5" stroke-linecap="round" stroke-linejoin="round"/>
<path d="M2 18.7834H36C36.4142 18.7834 36.75 19.1192 36.75 19.5334V30.2542C36.75 30.6684 36.4142 31.0042 36 31.0042H2C1.58579 31.0042 1.25 30.6684 1.25 30.2542V19.5334C1.25 19.1192 1.58579 18.7834 2 18.7834Z" stroke="currentColor" stroke-width="2.5"/>
<path d="M8.24902 24.7741C8.24902 25.4645 8.80867 26.0241 9.49902 26.0241C10.1894 26.0241 10.749 25.4645 10.749 24.7741H9.49902H8.24902ZM16.9574 24.7741C16.9574 25.4645 17.517 26.0241 18.2074 26.0241C18.8977 26.0241 19.4574 25.4645 19.4574 24.7741H18.2074H16.9574ZM25.6657 24.7741C25.6657 25.4645 26.2253 26.0241 26.9157 26.0241C27.606 26.0241 28.1657 25.4645 28.1657 24.7741H26.9157H25.6657ZM9.49902 19.4023H8.24902V24.7741H9.49902H10.749V19.4023H9.49902ZM18.2074 19.4023H16.9574V24.7741H18.2074H19.4574V19.4023H18.2074ZM26.9157 19.4023H25.6657V24.7741H26.9157H28.1657V19.4023H26.9157Z" fill="currentColor"/>
</svg>
