<svg viewBox="0 0 37 32" fill="none" xmlns="http://www.w3.org/2000/svg">
<path d="M25.56 24.1263H28.5M9.46 16.5L7.5 16.5514M9.46 16.5C9.46 18.0464 10.7136 19.3 12.26 19.3C13.8064 19.3 15.06 18.0464 15.06 16.5C15.06 14.9536 13.8064 13.7 12.26 13.7C10.7136 13.7 9.46 14.9536 9.46 16.5ZM15.8638 16.5515H28.5M18.9345 8.97644L7.5 8.97644M28.5 8.97644H25.56M7.5 24.1263H18.9345M24.86 24.2C24.86 25.7464 23.6064 27 22.06 27C20.5136 27 19.26 25.7464 19.26 24.2C19.26 22.6536 20.5136 21.4 22.06 21.4C23.6064 21.4 24.86 22.6536 24.86 24.2ZM24.86 8.8C24.86 10.3464 23.6064 11.6 22.06 11.6C20.5136 11.6 19.26 10.3464 19.26 8.8C19.26 7.2536 20.5136 6 22.06 6C23.6064 6 24.86 7.2536 24.86 8.8Z" stroke="currentColor" stroke-width="1.5" stroke-linecap="round" />
</svg>
