<svg viewBox="0 0 16 16" fill="none" xmlns="http://www.w3.org/2000/svg">
<path d="M8.58438 10.7788C8.68598 10.5023 9.09148 10.5023 9.19307 10.7788L9.47089 11.5349C9.50341 11.6234 9.57562 11.693 9.6674 11.7243L10.4515 11.9922C10.7382 12.0902 10.7382 12.4812 10.4515 12.5792L9.6674 12.8471C9.57562 12.8784 9.50341 12.9481 9.47089 13.0366L9.19307 13.7926C9.09148 14.0691 8.68598 14.0691 8.58438 13.7926L8.30656 13.0366C8.27404 12.9481 8.20184 12.8784 8.11005 12.8471L7.326 12.5792C7.03927 12.4812 7.03927 12.0902 7.326 11.9922L8.11005 11.7243C8.20184 11.693 8.27404 11.6234 8.30656 11.5349L8.58438 10.7788Z" stroke="currentColor" stroke-linejoin="round"/>
<path d="M9.75947 2.31519C9.91389 1.89494 10.5302 1.89494 10.6847 2.31519L11.2139 3.75555C11.2634 3.89007 11.3731 3.9959 11.5126 4.04356L13.0063 4.55393C13.4421 4.70284 13.4421 5.29716 13.0063 5.44607L11.5126 5.95644C11.3731 6.0041 11.2634 6.10993 11.2139 6.24445L10.6847 7.68481C10.5302 8.10506 9.91389 8.10506 9.75947 7.68481L9.2302 6.24445C9.18077 6.10993 9.07102 6.0041 8.93152 5.95644L7.43781 5.44607C7.00199 5.29716 7.00199 4.70284 7.43781 4.55393L8.93152 4.04356C9.07102 3.9959 9.18077 3.89007 9.2302 3.75555L9.75947 2.31519Z" stroke="currentColor" stroke-linejoin="round"/>
<path d="M4.32411 6.24193C4.43841 5.91936 4.8946 5.91936 5.00889 6.24193L5.32144 7.12399C5.35803 7.22725 5.43926 7.30848 5.54251 7.34506L6.42458 7.65761C6.74715 7.77191 6.74715 8.22809 6.42458 8.34239L5.54251 8.65494C5.43926 8.69152 5.35803 8.77275 5.32144 8.87601L5.00889 9.75807C4.8946 10.0806 4.43841 10.0806 4.32411 9.75807L4.01157 8.87601C3.97498 8.77275 3.89375 8.69152 3.7905 8.65494L2.90843 8.34239C2.58586 8.22809 2.58586 7.77191 2.90843 7.65761L3.7905 7.34506C3.89375 7.30848 3.97498 7.22725 4.01157 7.12399L4.32411 6.24193Z" stroke="currentColor" stroke-linejoin="round"/>
</svg>
