<svg viewBox="0 0 31 44" fill="none" xmlns="http://www.w3.org/2000/svg">
<path fill-rule="evenodd" clip-rule="evenodd" d="M17.3725 23.19C20.6713 24.9695 22.9001 28.3555 22.9001 32.2375C22.9001 37.9629 18.0496 42.611 12.0757 42.611C6.10027 42.611 1.25 37.9629 1.25 32.2375C1.25 28.3382 3.50164 24.9375 6.8249 23.166V6.30376C6.8249 3.51488 9.18818 1.25 12.0987 1.25C15.0092 1.25 17.3725 3.51488 17.3725 6.30376V23.19Z" stroke="currentColor" stroke-width="2.5" stroke-miterlimit="1.5" stroke-linecap="round" stroke-linejoin="round"/>
<path d="M13.1348 27.1421C15.6832 27.5731 17.5516 29.689 17.5518 32.1509C17.5518 34.9088 15.1989 37.2388 12.1885 37.2388C9.17819 37.2386 6.8252 34.9086 6.8252 32.1509C6.8254 29.7183 8.64976 27.6243 11.1523 27.1587L12.1406 26.9741L13.1348 27.1421Z" stroke="currentColor" stroke-width="2.5"/>
<path d="M21.3232 8.92627H29.2506" stroke="currentColor" stroke-width="2.5" stroke-miterlimit="1.5" stroke-linecap="round" stroke-linejoin="round"/>
<path d="M21.3228 13.499H29.2501" stroke="currentColor" stroke-width="2.5" stroke-miterlimit="1.5" stroke-linecap="round" stroke-linejoin="round"/>
<path d="M21.3228 18.2114H29.2501" stroke="currentColor" stroke-width="2.5" stroke-miterlimit="1.5" stroke-linecap="round" stroke-linejoin="round"/>
<path d="M23.5605 22.9236H29.2489" stroke="currentColor" stroke-width="2.5" stroke-miterlimit="1.5" stroke-linecap="round" stroke-linejoin="round"/>
</svg>
