<svg viewBox="0 0 41 45" fill="none" xmlns="http://www.w3.org/2000/svg">
<path d="M39.25 34.7459V37.7849C39.25 40.5463 37.0114 42.7849 34.25 42.7849H5.81C3.29158 42.7849 1.25 40.9853 1.25 38.7654V6.25002C1.25 3.4886 3.48858 1.25003 6.25 1.25003H34.25C37.0114 1.25003 39.25 3.4886 39.25 6.25003V34.7302M19.4834 9.84998H32.5459M19.4834 21.9885H27.2118" stroke="currentColor" stroke-width="2.5" stroke-linecap="round" stroke-linejoin="round"/>
<path d="M19.8081 33.7659L32.8711 33.7656" stroke="currentColor" stroke-width="2.5" stroke-linecap="round" stroke-linejoin="round"/>
<path d="M7.43604 5.70087L9.67609 4.31421H10.9709V14.0351H9.44302V6.20121L8.12229 7.00176L7.43604 5.70087Z" fill="currentColor"/>
<path d="M12.9959 26.4072H7.71924V25.0688C7.71924 24.3926 7.80035 23.8291 7.96258 23.3782C8.12481 22.918 8.34254 22.5423 8.61577 22.2512C8.88899 21.9506 9.18784 21.7111 9.5123 21.5327L10.3832 21.0537C10.7162 20.8658 10.9852 20.6686 11.1901 20.4619C11.4035 20.2459 11.5103 19.9689 11.5103 19.6307V19.3771C11.5103 19.0296 11.3993 18.7573 11.1773 18.56C10.9638 18.3534 10.618 18.2501 10.1399 18.2501C9.84956 18.2501 9.55499 18.297 9.25614 18.391C8.96584 18.4849 8.6115 18.6164 8.19312 18.7854L7.71924 17.3343C8.19739 17.0995 8.63284 16.9352 9.02561 16.8413C9.42691 16.7379 9.81541 16.6863 10.1911 16.6863C10.8827 16.6863 11.4334 16.8084 11.8433 17.0526C12.2616 17.2968 12.5605 17.6255 12.7398 18.0388C12.9276 18.4426 13.0216 18.8888 13.0216 19.3771V19.6307C13.0216 20.1379 12.9276 20.57 12.7398 20.9269C12.5605 21.2838 12.3214 21.5843 12.0226 21.8285C11.7237 22.0727 11.3993 22.2887 11.0492 22.4766L10.1783 22.9556C9.86237 23.1246 9.62756 23.3594 9.47387 23.66C9.32872 23.9605 9.24761 24.3456 9.23053 24.8152H12.9959V26.4072Z" fill="currentColor"/>
<path d="M13.0215 36.0713C13.0215 36.562 12.915 37.0156 12.702 37.4322C12.4891 37.8396 12.1454 38.1683 11.671 38.4182C11.2063 38.6589 10.5819 38.7793 9.79778 38.7793C9.35246 38.7793 8.88778 38.7284 8.40374 38.6265C7.92938 38.5247 7.40662 38.3534 6.83545 38.1127L7.37273 36.6823C7.88582 36.8582 8.31662 36.9971 8.66513 37.0989C9.02332 37.1915 9.38151 37.2378 9.7397 37.2378C10.2528 37.2378 10.64 37.1406 10.9014 36.9462C11.1725 36.7425 11.308 36.4277 11.308 36.0019V35.8075C11.308 35.4556 11.1918 35.1733 10.9595 34.9603C10.7368 34.7382 10.3883 34.6271 9.91395 34.6271H8.3747V33.1273H9.91395C10.369 33.1273 10.7029 33.0254 10.9159 32.8217C11.1289 32.6088 11.2354 32.3357 11.2354 32.0024V31.808C11.2354 31.3821 11.1095 31.0766 10.8578 30.8914C10.6158 30.697 10.2576 30.5998 9.78326 30.5998C9.44443 30.5998 9.10076 30.6461 8.75225 30.7387C8.41342 30.822 8.00199 30.9516 7.51795 31.1275L6.98066 29.6972C7.52279 29.4564 8.02619 29.2898 8.49087 29.1972C8.95555 29.1046 9.40571 29.0583 9.84135 29.0583C10.5868 29.0583 11.187 29.1787 11.642 29.4194C12.097 29.6601 12.4261 29.9842 12.6294 30.3915C12.8424 30.7989 12.9489 31.2479 12.9489 31.7385V31.933C12.9489 32.3681 12.8327 32.7523 12.6004 33.0856C12.3777 33.4096 12.0825 33.6688 11.7146 33.8633C12.1115 34.0669 12.4261 34.3401 12.6585 34.6826C12.9005 35.0159 13.0215 35.414 13.0215 35.8769V36.0713Z" fill="currentColor"/>
</svg>
