<svg viewBox="0 0 41 45" fill="none" xmlns="http://www.w3.org/2000/svg">
<path d="M39.25 34.7302V5.66863C39.25 3.22831 37.2717 1.25003 34.8314 1.25003H5.6686C3.22828 1.25003 1.25 3.22831 1.25 5.66864V38.7654C1.25 40.9853 3.29158 42.7849 5.81 42.7849H34.8314C37.2717 42.7849 39.25 40.8066 39.25 38.3663V34.7459M7.3042 9.84998H15.8314M7.3042 21.9885H20.3667" stroke="currentColor" stroke-width="2.5" stroke-linecap="round" stroke-linejoin="round"/>
<path d="M7.62842 33.7659L16.1561 33.7656" stroke="currentColor" stroke-width="2.5" stroke-linecap="round" stroke-linejoin="round"/>
<path d="M27.3232 26.7719V17.157H30.2501C30.9665 17.157 31.5321 17.2607 31.9469 17.4681C32.3711 17.6754 32.6727 17.9676 32.8518 18.3447C33.0403 18.7218 33.1346 19.1648 33.1346 19.6738V20.0697C33.1346 20.8144 32.8141 21.3847 32.1731 21.7806C32.6256 21.9597 32.9696 22.2189 33.2053 22.5583C33.4409 22.8976 33.5588 23.303 33.5588 23.7743V24.1702C33.5588 24.6886 33.4645 25.1458 33.276 25.5417C33.0875 25.9282 32.7764 26.2298 32.3428 26.4467C31.9092 26.6635 31.3294 26.7719 30.6036 26.7719H27.3232ZM30.2501 18.7123H29.02V21.1161H30.2501C30.6272 21.1161 30.91 21.0312 31.0985 20.8615C31.2965 20.6824 31.3954 20.4421 31.3954 20.1404V19.6738C31.3954 19.3722 31.2965 19.1365 31.0985 18.9668C30.91 18.7972 30.6272 18.7123 30.2501 18.7123ZM30.6036 22.6714H29.02V25.2165H30.6036C30.9995 25.2165 31.3012 25.1223 31.5085 24.9337C31.7159 24.7452 31.8196 24.4907 31.8196 24.1702V23.7036C31.8196 23.3831 31.7159 23.1333 31.5085 22.9542C31.3012 22.7657 30.9995 22.6714 30.6036 22.6714Z" fill="currentColor"/>
<path d="M32.6009 14.3998L32.007 12.5192H28.7125L28.1186 14.3998H26.436L29.6457 4.78491H31.1445L34.3683 14.3998H32.6009ZM29.6316 9.57821L29.1932 10.9639H31.5121L31.0738 9.57821L30.3668 7.14621L29.6316 9.57821Z" fill="currentColor"/>
<path d="M32.6009 39.144L32.007 37.2634H28.7125L28.1186 39.144H26.436L29.6457 29.5291H31.1445L34.3683 39.144H32.6009ZM29.6316 34.3224L29.1932 35.7081H31.5121L31.0738 34.3224L30.3668 31.8904L29.6316 34.3224Z" fill="currentColor"/>
</svg>
