<svg width="17" height="18" viewBox="0 0 17 18" fill="none" xmlns="http://www.w3.org/2000/svg">
<path d="M8.83703 12.7708C8.97673 12.3906 9.53429 12.3906 9.67398 12.7708L10.056 13.8104C10.1007 13.9321 10.2 14.0278 10.3262 14.0709L11.4043 14.4393C11.7985 14.574 11.7985 15.1116 11.4043 15.2463L10.3262 15.6147C10.2 15.6578 10.1007 15.7536 10.056 15.8752L9.67398 16.9148C9.53429 17.295 8.97673 17.295 8.83703 16.9148L8.45503 15.8752C8.41031 15.7536 8.31103 15.6578 8.18483 15.6147L7.10675 15.2463C6.7125 15.1116 6.7125 14.574 7.10675 14.4393L8.18483 14.0709C8.31103 14.0278 8.41031 13.9321 8.45503 13.8104L8.83703 12.7708Z" stroke="white" stroke-width="1.4" stroke-linejoin="round"/>
<path d="M10.4528 1.13333C10.6651 0.55549 11.5126 0.55549 11.7249 1.13333L12.4527 3.11383C12.5206 3.2988 12.6715 3.44431 12.8633 3.50985L14.9172 4.2116C15.5164 4.41635 15.5164 5.23355 14.9172 5.4383L12.8633 6.14005C12.6715 6.20559 12.5206 6.35111 12.4527 6.53607L11.7249 8.51657C11.5126 9.09441 10.6651 9.09441 10.4528 8.51657L9.72503 6.53607C9.65706 6.35111 9.50616 6.20559 9.31434 6.14005L7.2605 5.4383C6.66125 5.23355 6.66125 4.41635 7.2605 4.2116L9.31434 3.50985C9.50616 3.44431 9.65706 3.2988 9.72503 3.11383L10.4528 1.13333Z" stroke="white" stroke-width="1.4" stroke-linejoin="round"/>
<path d="M2.97916 6.5326C3.13632 6.08907 3.76358 6.08907 3.92074 6.5326L4.35049 7.74544C4.40079 7.88742 4.51248 7.99911 4.65446 8.04942L5.8673 8.47917C6.31083 8.63632 6.31084 9.26358 5.8673 9.42074L4.65446 9.85049C4.51248 9.90079 4.40079 10.0125 4.35049 10.1545L3.92074 11.3673C3.76358 11.8108 3.13632 11.8108 2.97916 11.3673L2.54941 10.1545C2.49911 10.0125 2.38742 9.90079 2.24544 9.85049L1.0326 9.42074C0.589068 9.26358 0.589067 8.63632 1.0326 8.47917L2.24544 8.04942C2.38742 7.99911 2.49911 7.88742 2.54941 7.74544L2.97916 6.5326Z" stroke="white" stroke-width="1.4" stroke-linejoin="round"/>
</svg>
