<svg width="24" height="17" viewBox="0 0 24 17" fill="none" xmlns="http://www.w3.org/2000/svg">
<path fill-rule="evenodd" clip-rule="evenodd" d="M7.40373 1.53493C7.51805 1.3066 7.75276 1.16364 8.00809 1.1668C8.42292 1.17194 8.83122 1.27075 9.2025 1.45585C9.57377 1.64096 9.89842 1.90757 10.1522 2.23576C10.4059 2.56396 10.5823 2.94526 10.668 3.35117C10.7536 3.75665 10.7465 4.17622 10.6474 4.57859C10.6473 4.57902 10.6472 4.57945 10.6471 4.57988L10.181 6.50008H13.2198C13.5303 6.50008 13.8366 6.57237 14.1143 6.71123C14.392 6.85008 14.6335 7.05169 14.8198 7.30008C15.0061 7.54847 15.132 7.83683 15.1876 8.14231C15.2431 8.44771 15.2268 8.76184 15.1399 9.05984C15.1399 9.05992 15.1399 9.05975 15.1399 9.05984L13.5866 14.3932C13.4654 14.8086 13.2127 15.1738 12.8665 15.4334C12.5203 15.6931 12.0992 15.8334 11.6665 15.8334H2.6665C2.13607 15.8334 1.62736 15.6227 1.25229 15.2476C0.877218 14.8726 0.666504 14.3638 0.666504 13.8334V8.50008C0.666504 7.96965 0.877218 7.46094 1.25229 7.08587C1.62736 6.7108 2.13607 6.50008 2.6665 6.50008H4.50615C4.63018 6.50002 4.75173 6.46535 4.85714 6.39999C4.96254 6.33462 5.04762 6.24115 5.10282 6.13008L5.10372 6.12826L7.40373 1.53493ZM3.99984 7.83342H2.6665C2.48969 7.83342 2.32012 7.90365 2.1951 8.02868C2.07008 8.1537 1.99984 8.32327 1.99984 8.50008V13.8334C1.99984 14.0102 2.07008 14.1798 2.1951 14.3048C2.32012 14.4298 2.48969 14.5001 2.6665 14.5001H3.99984V7.83342ZM5.33317 14.5001H11.6665C11.8108 14.5001 11.9511 14.4533 12.0665 14.3667C12.1818 14.2803 12.266 14.1587 12.3064 14.0203C12.3064 14.0204 12.3065 14.0202 12.3064 14.0203L13.8598 8.68699C13.8887 8.58764 13.8943 8.48265 13.8758 8.38082C13.8572 8.279 13.8153 8.18288 13.7532 8.10008C13.6911 8.01728 13.6105 7.95008 13.518 7.9038C13.4254 7.85751 13.3233 7.83342 13.2198 7.83342H9.33317C9.12868 7.83342 8.93551 7.73957 8.80911 7.57882C8.68272 7.41808 8.63708 7.20822 8.68531 7.0095L9.35198 4.26284L9.3526 4.26029C9.40389 4.05256 9.40757 3.83594 9.36337 3.6266C9.31918 3.41725 9.22824 3.2206 9.09737 3.05134C8.9665 2.88207 8.79906 2.74457 8.60758 2.64911C8.53477 2.61281 8.4592 2.58294 8.38173 2.55972L6.29686 6.72341C6.2967 6.72374 6.29653 6.72407 6.29637 6.72439C6.13078 7.05718 5.87572 7.33724 5.55981 7.53314C5.48669 7.57848 5.41097 7.6189 5.33317 7.65425V14.5001Z" fill="#52525B"/>
</svg>
