<svg width="28" height="25" viewBox="0 0 28 25" fill="none" xmlns="http://www.w3.org/2000/svg">
<path d="M27.1156 4.09466C26.936 3.98688 26.7922 3.95095 26.6126 3.95095C26.8641 3.30424 26.8641 2.58568 26.6485 1.97491C26.0018 2.11862 25.391 2.51383 24.9958 3.05275C24.8881 2.90904 24.7803 2.76532 24.6006 2.69347C24.0258 2.37012 23.3432 2.58568 23.0198 3.16053C22.6964 3.73538 22.912 4.41801 23.4509 4.74137C23.7384 4.92101 24.0617 4.92101 24.3491 4.84915C23.8461 5.38807 23.0917 5.74735 22.2653 5.74735C20.9719 5.74735 19.8941 4.88508 19.5707 3.69945C19.7863 3.91502 20.0737 4.05873 20.3971 4.05873C21.0438 4.05873 21.5468 3.51981 21.5468 2.90904C21.5468 2.26233 21.0438 1.75934 20.3971 1.75934C20.2174 1.75934 20.0378 1.79527 19.8581 1.90305C19.7504 1.22042 19.427 0.609642 18.924 0.142578C18.421 0.609642 18.0977 1.22042 17.9899 1.90305C17.8462 1.8312 17.6665 1.75934 17.451 1.75934C16.8043 1.75934 16.3013 2.29826 16.3013 2.90904C16.3013 3.55574 16.8043 4.05873 17.451 4.05873C17.7743 4.05873 18.0617 3.91502 18.2773 3.69945C17.918 4.88508 16.8402 5.74735 15.5827 5.74735C14.7564 5.74735 14.0378 5.38807 13.4989 4.84915C13.7863 4.95693 14.1097 4.92101 14.3971 4.74137C14.9719 4.41801 15.1516 3.73538 14.8282 3.16053C14.5049 2.58568 13.8222 2.40604 13.2474 2.69347C13.0677 2.80125 12.96 2.90904 12.8522 3.05275C12.421 2.51383 11.8462 2.11862 11.1995 1.97491C10.9839 2.62161 10.9839 3.30424 11.2354 3.95095C11.0558 3.95095 10.8761 3.98688 10.7324 4.09466C10.1576 4.41801 9.97793 5.10065 10.3013 5.67549C10.6246 6.25034 11.3073 6.42998 11.8821 6.14256C12.0977 6.03477 12.2414 5.85513 12.3492 5.67549C12.6725 6.28627 12.8522 6.9689 12.8522 7.72339C12.8522 8.01082 12.8162 8.26231 12.7803 8.51381C12.7803 8.54974 12.8162 8.62159 12.8522 8.62159C14.5767 8.87309 16.6605 9.0168 18.8881 9.0168C21.1156 9.0168 23.1994 8.87309 24.924 8.62159C24.9599 8.62159 24.9958 8.58567 24.9958 8.51381C24.9599 8.26231 24.924 7.97489 24.924 7.72339C24.924 6.9689 25.1036 6.28627 25.427 5.67549C25.5348 5.85513 25.6785 6.03477 25.894 6.14256C26.4689 6.46591 27.1515 6.25034 27.4749 5.67549C27.8701 5.10065 27.6904 4.41801 27.1156 4.09466Z" fill="white"/>
<path d="M0.852397 18.6455V14.4419C0.852397 13.1485 0.313477 11.6396 0.313477 11.5677V11.4958H4.84041V11.5677C4.84041 11.6396 4.30149 13.1485 4.30149 14.4419V19.0767C4.30149 21.6276 5.3434 22.7054 6.99609 22.7054C8.64878 22.7054 9.69069 21.5916 9.69069 19.2204V15.915C9.69069 13.939 8.61285 11.7114 8.61285 11.6036V11.4958H11.9182V11.6036C11.9182 11.7114 10.8404 13.939 10.8404 15.915V19.2204C10.8404 22.7413 8.68471 24.1425 6.06196 24.1425C3.58293 24.1066 0.852397 22.8491 0.852397 18.6455Z" fill="white"/>
<path d="M17.3795 23.8911H12.8525V23.8192C12.8525 23.7473 13.3915 22.2384 13.3915 20.945V14.442C13.3915 13.1486 12.8525 11.6396 12.8525 11.5677V11.4959H17.3795V11.5677C17.3795 11.6396 16.8406 13.1486 16.8406 14.442V20.945C16.8406 22.2384 17.3795 23.7473 17.3795 23.8192V23.8911ZM19.3555 21.3402L17.0561 17.7833C17.0202 17.7114 16.9843 17.6755 17.092 17.5677L18.5651 16.2025L20.1819 14.6935C21.619 13.3641 21.0082 11.6755 21.0082 11.5677V11.46H25.104V11.5318C24.3854 11.9989 23.595 12.7174 22.625 13.6156L19.8944 16.1665L23.5232 21.3761C24.2776 22.4539 25.4633 23.7473 25.4633 23.8192V23.8911H20.1459C20.1459 23.8192 20.0741 22.4539 19.3555 21.3402Z" fill="white"/>
</svg>
