<?xml version="1.0" encoding="utf-8"?>
<!-- Generator: Adobe Illustrator 26.5.0, SVG Export Plug-In . SVG Version: 6.00 Build 0)  -->
<svg version="1.1" xmlns="http://www.w3.org/2000/svg" xmlns:xlink="http://www.w3.org/1999/xlink" x="0px" y="0px"
	 viewBox="0 0 283.5 283.5" style="enable-background:new 0 0 283.5 283.5;" xml:space="preserve">
<style type="text/css">
	.st0{fill:#E5EAED;}
	.st1{display:none;}
	.st2{display:inline;fill:#E5EAED;}
	.st3{display:inline;}
	.st4{fill:#FFFFFF;}
	.st5{font-family:'Silka-SemiBold';}
	.st6{font-size:9px;}
	.st7{font-family:'Silka-Regular';}
	.st8{font-size:8px;}
</style>
<g id="BG">
</g>
<g id="Obrys">
	<g>
		<path class="st0" d="M283.5,267.7v-0.9L268.6,252l14.9-14.9v-0.8v-0.9v0l-14.9-14.9l14.9-14.9v-0.8v-0.9v0l-9.9-9.9l-5-5
			l14.9-14.9v0v-0.8v-0.9l-14.9-14.9l14.9-14.9v-0.8v-0.8v0L268.6,126l14.9-14.9v0v-0.8v-0.9l-14.9-14.9l14.9-14.9v-0.9v-0.8v0
			L268.6,63l14.9-14.9v-0.8v-0.8v0l-14.9-14.9l14.9-14.9v0v-0.8v-0.8L268.6,0h-0.8h0h-0.8L252,14.9L237.1,0h0h-0.8h0h-0.8
			l-14.9,14.9h0L205.6,0h0h-0.8h-0.8L189,14.9L174.1,0h-0.8h-0.8l-14.9,14.9L142.6,0h-0.9h0h-0.8h0L126,14.9L111.1,0h-0.8h0h-0.8
			L94.5,14.9L79.6,0h0h-0.8h0h-0.8L63,14.9h0L48.1,0h0h-0.8h-0.8L31.5,14.9L16.6,0h-0.8h-0.8h0L0,14.9v0.8v0.9l14.9,14.9l-7.7,7.7
			L0,46.4v0.9v0.8L14.9,63L0,77.9v0.8v0.8l14.9,14.9v0L0,109.4v0.9v0.8L14.9,126L0,140.9v0v0.8v0.8l14.9,14.9v0L0,172.4v0.8v0.8
			L14.9,189L0,203.9v0.9v0.8l14.9,14.9L0,235.4v0.9v0.8L14.9,252v0L0,266.9v0.8v0.9l14.9,14.9h1.7l14.9-14.9l14.9,14.9h1.7L63,268.6
			l14.9,14.9h1.7l14.9-14.9l14.9,14.9h1.7l14.9-14.9l14.9,14.9h1.7l14.9-14.9l14.9,14.9h1.7l14.9-14.9l14.9,14.9h1.7l14.9-14.9
			l14.9,14.9h1.7l14.9-14.9l14.9,14.9h1.7l14.9-14.9V267.7z M252,266.9L237.1,252v0l14.9-14.9l14.9,14.9L252,266.9z M157.5,266.9
			L142.6,252v0l14.9-14.9l14.9,14.9v0L157.5,266.9z M94.5,266.9L79.6,252v0l14.9-14.9l14.9,14.9L94.5,266.9z M31.5,266.9L16.6,252v0
			l14.9-14.9L46.4,252L31.5,266.9z M31.5,16.6l14.9,14.9L31.5,46.4L16.6,31.5L31.5,16.6z M94.5,16.6l14.9,14.9L94.5,46.4L79.6,31.5
			L94.5,16.6z M126,16.6l14.9,14.9L126,46.4h0l-14.9-14.9L126,16.6z M157.5,16.6l14.9,14.9l-14.9,14.9l-14.9-14.9L157.5,16.6z
			 M189,16.6l14.9,14.9L189,46.4l-14.9-14.9L189,16.6z M252,16.6l14.9,14.9L252,46.4l-14.9-14.9L252,16.6z M282.6,78.7l-14.9,14.9
			l-14.9-14.9v0l14.9-14.9L282.6,78.7z M236.2,251.1l-14.9-14.9l14.9-14.9l14.9,14.9L236.2,251.1z M173.2,251.1l-14.9-14.9
			l14.9-14.9l14.9,14.9L173.2,251.1z M141.7,251.1l-14.9-14.9l14.9-14.9l14.9,14.9L141.7,251.1z M78.7,251.1l-14.9-14.9l14.9-14.9
			l14.9,14.9L78.7,251.1z M32.4,110.2l14.9-14.9l14.9,14.9l-14.9,14.9h0L32.4,110.2L32.4,110.2z M32.4,47.2l14.9-14.9l14.9,14.9
			L47.3,62.1h0L32.4,47.2z M78.7,32.3l14.9,14.9L78.7,62.1L63.8,47.2L78.7,32.3z M141.7,32.3l14.9,14.9l-14.9,14.9h0l-14.9-14.9
			L141.7,32.3z M173.2,32.3l14.9,14.9l-14.9,14.9l-14.9-14.9L173.2,32.3z M236.2,32.3l14.9,14.9l-14.9,14.9l-14.9-14.9L236.2,32.3z
			 M251.1,78.7l-14.9,14.9l-14.9-14.9l14.9-14.9L251.1,78.7L251.1,78.7z M251.1,173.2l-14.9,14.9l-14.9-14.9v0l14.9-14.9
			L251.1,173.2L251.1,173.2z M204.7,251.1l-14.9-14.9l14.9-14.9l14.9,14.9L204.7,251.1z M157.5,235.4l-14.9-14.9l14.9-14.9
			l14.9,14.9L157.5,235.4z M126,235.4L126,235.4l-14.9-14.9l14.9-14.9l14.9,14.9L126,235.4z M94.5,235.4l-14.9-14.9l14.9-14.9
			l14.9,14.9L94.5,235.4z M63,235.4L63,235.4l-14.9-14.9L63,205.6l14.9,14.9L63,235.4z M48.1,126L63,111.1L77.9,126L63,140.9h0
			L48.1,126z M48.1,63L63,48.1L77.9,63L63,77.9h0L48.1,63z M94.5,48.1L109.4,63L94.5,77.9L79.6,63L94.5,48.1z M126,48.1L140.9,63
			L126,77.9h0L111.1,63L126,48.1z M157.5,48.1L172.4,63l-14.9,14.9L142.6,63L157.5,48.1z M220.5,48.1L235.4,63l-14.9,14.9h0
			L205.6,63L220.5,48.1z M158.3,204.7l14.9-14.9l14.9,14.9l-14.9,14.9L158.3,204.7z M95.3,204.7l14.9-14.9l14.9,14.9l-14.9,14.9
			L95.3,204.7z M78.7,219.6l-14.9-14.9l14.9-14.9l14.9,14.9L78.7,219.6z M63.8,173.2l14.9-14.9l14.9,14.9v0l-14.9,14.9L63.8,173.2
			L63.8,173.2z M78.7,63.8l14.9,14.9L78.7,93.6L63.8,78.7L78.7,63.8z M110.2,63.8l14.9,14.9l-14.9,14.9L95.3,78.7L110.2,63.8z
			 M141.7,63.8l14.9,14.9l-14.9,14.9l-14.9-14.9L141.7,63.8z M173.2,63.8l14.9,14.9l-14.9,14.9l-14.9-14.9L173.2,63.8z M204.7,63.8
			L204.7,63.8l14.9,14.9l-14.9,14.9l-14.9-14.9L204.7,63.8z M174.1,189l14.9-14.9l14.9,14.9L189,203.9L174.1,189z M157.5,203.9
			L142.6,189l14.9-14.9l14.9,14.9L157.5,203.9z M126,203.9L126,203.9L111.1,189l14.9-14.9l14.9,14.9L126,203.9z M79.6,189l14.9-14.9
			l14.9,14.9l-14.9,14.9L79.6,189z M126,79.6l14.9,14.9L126,109.4l-14.9-14.9v0L126,79.6z M157.5,79.6l14.9,14.9v0l-14.9,14.9
			l-14.9-14.9v0L157.5,79.6z M189,79.6l14.9,14.9L189,109.4l-14.9-14.9v0L189,79.6z M173.2,188.1l-14.9-14.9v0l14.9-14.9l14.9,14.9
			L173.2,188.1z M110.2,188.1l-14.9-14.9v0l14.9-14.9l14.9,14.9L110.2,188.1z M110.2,95.3l14.9,14.9l-14.9,14.9l-14.9-14.9
			L110.2,95.3z M141.7,95.3l14.9,14.9l-14.9,14.9h0l-14.9-14.9v0L141.7,95.3z M173.2,95.3l14.9,14.9l-14.9,14.9l-14.9-14.9
			L173.2,95.3z M157.5,172.4l-14.9-14.9l14.9-14.9l14.9,14.9v0L157.5,172.4z M157.5,111.1l14.9,14.9l-14.9,14.9L142.6,126
			L157.5,111.1z M126,142.6L126,142.6l14.9,14.9L126,172.4l-14.9-14.9L126,142.6z M141.7,156.6L141.7,156.6l-14.9-14.9l14.9-14.9
			l14.9,14.9L141.7,156.6z M126,140.9L126,140.9L111.1,126l14.9-14.9l14.9,14.9L126,140.9z M110.2,126.8l14.9,14.9l-14.9,14.9
			l-14.9-14.9L110.2,126.8z M173.2,156.6l-14.9-14.9l14.9-14.9l14.9,14.9L173.2,156.6z M141.7,158.3l14.9,14.9l-14.9,14.9
			l-14.9-14.9L141.7,158.3z M189,172.4l-14.9-14.9v0l14.9-14.9l14.9,14.9L189,172.4z M204.7,156.6L204.7,156.6l-14.9-14.9l14.9-14.9
			l14.9,14.9L204.7,156.6z M189,140.9L174.1,126l14.9-14.9l14.9,14.9L189,140.9z M94.5,79.6l14.9,14.9l-14.9,14.9L79.6,94.5v0
			L94.5,79.6z M94.5,111.1l14.9,14.9l-14.9,14.9L79.6,126L94.5,111.1z M94.5,142.6l14.9,14.9l-14.9,14.9l-14.9-14.9L94.5,142.6z
			 M204.7,188.1l-14.9-14.9v0l14.9-14.9l14.9,14.9L204.7,188.1z M204.7,125.1L204.7,125.1l-14.9-14.9v0l14.9-14.9l14.9,14.9
			L204.7,125.1z M78.7,95.3l14.9,14.9l-14.9,14.9l-14.9-14.9L78.7,95.3z M78.7,126.8l14.9,14.9l-14.9,14.9l-14.9-14.9L78.7,126.8z
			 M141.7,219.6L141.7,219.6l-14.9-14.9l14.9-14.9l14.9,14.9L141.7,219.6z M204.7,189.8l14.9,14.9l-14.9,14.9h0l-14.9-14.9
			L204.7,189.8z M205.6,220.5l14.9-14.9l14.9,14.9l-14.9,14.9h0L205.6,220.5z M220.5,203.9L220.5,203.9L205.6,189v0l14.9-14.9
			l14.9,14.9L220.5,203.9z M220.5,172.4l-14.9-14.9l14.9-14.9h0l14.9,14.9L220.5,172.4z M220.5,140.9L220.5,140.9L205.6,126
			l14.9-14.9l14.9,14.9L220.5,140.9z M220.5,109.4l-14.9-14.9l14.9-14.9l14.9,14.9L220.5,109.4z M189,48.1L203.9,63L189,77.9
			L174.1,63L189,48.1z M63,79.6l14.9,14.9L63,109.4L48.1,94.5L63,79.6z M63,142.6l14.9,14.9L63,172.4l-14.9-14.9L63,142.6z
			 M62.1,173.2l-14.9,14.9l-14.9-14.9l14.9-14.9L62.1,173.2z M48.1,189L63,174.1L77.9,189L63,203.9h0L48.1,189L48.1,189z M189,205.6
			l14.9,14.9L189,235.4l-14.9-14.9L189,205.6z M236.2,219.6l-14.9-14.9l14.9-14.9l14.9,14.9L236.2,219.6z M236.2,156.6l-14.9-14.9
			l14.9-14.9l14.9,14.9L236.2,156.6z M236.2,125.1l-14.9-14.9l14.9-14.9l14.9,14.9L236.2,125.1z M204.7,62.1L204.7,62.1l-14.9-14.9
			l14.9-14.9l14.9,14.9L204.7,62.1z M110.2,62.1L95.3,47.2l14.9-14.9l14.9,14.9L110.2,62.1z M47.2,63.8l14.9,14.9L47.2,93.6
			L32.4,78.7L47.2,63.8z M32.4,141.7l14.9-14.9l14.9,14.9l-14.9,14.9h0L32.4,141.7z M47.2,189.8l14.9,14.9l-14.9,14.9h0l-14.9-14.9
			L47.2,189.8z M47.2,221.3l14.9,14.9l-14.9,14.9l-14.9-14.9L47.2,221.3z M110.2,251.1l-14.9-14.9l14.9-14.9l14.9,14.9L110.2,251.1z
			 M267.7,251.1l-14.9-14.9l14.9-14.9l14.9,14.9L267.7,251.1z M252,235.4l-14.9-14.9l14.9-14.9l14.9,14.9L252,235.4z M252,203.9
			L237.1,189l14.9-14.9l14.9,14.9L252,203.9z M252,172.4l-14.9-14.9v0l14.9-14.9l14.9,14.9L252,172.4z M267.7,156.6l-14.9-14.9
			l14.9-14.9l14.9,14.9L267.7,156.6z M252,140.9L237.1,126l14.9-14.9l14.9,14.9L252,140.9z M252,109.4l-14.9-14.9v0L252,79.6
			l14.9,14.9L252,109.4z M252,77.9L237.1,63L252,48.1L266.9,63L252,77.9z M220.5,46.4L220.5,46.4l-14.9-14.9v0l14.9-14.9l14.9,14.9
			L220.5,46.4z M63,46.4L63,46.4L48.1,31.5v0L63,16.6l14.9,14.9L63,46.4z M31.5,48.1L46.4,63L31.5,77.9L16.6,63L31.5,48.1z
			 M31.5,79.6l14.9,14.9l-14.9,14.9L16.6,94.5v0L31.5,79.6z M31.5,111.1L46.4,126l-14.9,14.9L16.6,126L31.5,111.1z M31.5,142.6
			l14.9,14.9l-14.9,14.9l-14.9-14.9L31.5,142.6z M31.5,174.1L46.4,189l-14.9,14.9L16.6,189v0L31.5,174.1z M31.5,205.6l14.9,14.9
			l-14.9,14.9l-14.9-14.9L31.5,205.6z M63,237.1L77.9,252L63,266.9L48.1,252L63,237.1z M111.1,252L111.1,252l14.9-14.9l14.9,14.9
			L126,266.9L111.1,252z M189,266.9L174.1,252v0l14.9-14.9l14.9,14.9L189,266.9z M220.5,237.1l14.9,14.9l-14.9,14.9L205.6,252
			L220.5,237.1z M282.6,204.7l-14.9,14.9l-14.9-14.9l14.9-14.9L282.6,204.7z M282.6,173.2l-14.9,14.9l-14.9-14.9v0l14.9-14.9
			L282.6,173.2z M282.6,110.2l-14.9,14.9l-14.9-14.9l14.9-14.9L282.6,110.2z M282.6,47.2l-14.9,14.9l-14.9-14.9l14.9-14.9
			L282.6,47.2z M267.7,0.8l14.9,14.9l-14.9,14.9l-14.9-14.9L267.7,0.8z M236.2,0.8l14.9,14.9l-14.9,14.9l-14.9-14.9L236.2,0.8z
			 M204.7,0.8l14.9,14.9l-14.9,14.9l-14.9-14.9L204.7,0.8z M158.3,15.7l14.9-14.9l14.9,14.9l-14.9,14.9L158.3,15.7L158.3,15.7z
			 M141.7,0.8l14.9,14.9l-14.9,14.9l-14.9-14.9L141.7,0.8z M110.2,0.8l14.9,14.9l-14.9,14.9L95.3,15.7L110.2,0.8z M78.7,0.8
			l14.9,14.9L78.7,30.6L63.8,15.7L78.7,0.8z M47.2,0.8l14.9,14.9L47.2,30.6L32.3,15.7L47.2,0.8z M15.8,0.8l14.9,14.9L15.8,30.6
			L0.9,15.7L15.8,0.8z M0.9,47.2l7.4-7.4l7.5-7.5l14.9,14.9L15.8,62.1h0L0.9,47.2z M0.9,78.7l14.9-14.9l14.9,14.9L15.8,93.6
			L0.9,78.7z M0.9,110.2l14.9-14.9l14.9,14.9l-14.9,14.9h0L0.9,110.2z M0.9,141.7l14.9-14.9l14.9,14.9l-14.9,14.9L0.9,141.7z
			 M15.8,158.3l14.9,14.9l-14.9,14.9L0.9,173.2L15.8,158.3z M0.9,204.7l7.4-7.5l7.5-7.5l14.9,14.9l-14.9,14.9h0L0.9,204.7z
			 M0.9,236.2l14.9-14.9l14.9,14.9l-14.9,14.9L0.9,236.2z M15.8,282.6L0.9,267.7l14.9-14.9l14.9,14.9L15.8,282.6z M47.2,282.6
			l-14.9-14.9l14.9-14.9l14.9,14.9L47.2,282.6z M78.7,282.6l-14.9-14.9l14.9-14.9l14.9,14.9L78.7,282.6z M110.2,282.6l-14.9-14.9
			l14.9-14.9l14.9,14.9L110.2,282.6z M141.7,282.6l-14.9-14.9l14.9-14.9l14.9,14.9L141.7,282.6z M173.2,282.6l-14.9-14.9l14.9-14.9
			l14.9,14.9L173.2,282.6z M204.7,282.6l-14.9-14.9l14.9-14.9l14.9,14.9L204.7,282.6z M236.2,282.6l-14.9-14.9l14.9-14.9h0
			l14.9,14.9L236.2,282.6z M267.7,282.6l-14.9-14.9l14.9-14.9l14.9,14.9L267.7,282.6z"/>
		<path class="st0" d="M1.1,1.1C0.8,1.4,0.4,1.6,0,1.6v1.2c0.7,0,1.4-0.3,2-0.8c0.5-0.5,0.8-1.2,0.8-2H1.6C1.6,0.4,1.4,0.8,1.1,1.1z
			"/>
		<path class="st0" d="M2,29.5c-0.5-0.5-1.2-0.8-2-0.8v1.2c0.4,0,0.8,0.2,1.1,0.5c0.6,0.6,0.6,1.6,0,2.2c-0.3,0.3-0.7,0.5-1.1,0.5
			v1.2c0.7,0,1.5-0.3,2-0.8C3.1,32.4,3,30.6,2,29.5z"/>
		<path class="st0" d="M2.8,63c0-0.7-0.3-1.4-0.8-2c-0.5-0.5-1.2-0.8-2-0.8v1.2c0.4,0,0.8,0.2,1.1,0.5c0.3,0.3,0.5,0.7,0.5,1.1
			s-0.2,0.8-0.5,1.1c-0.3,0.3-0.7,0.5-1.1,0.5v1.2c0.7,0,1.5-0.3,2-0.8C2.5,64.4,2.8,63.7,2.8,63z"/>
		<path class="st0" d="M2.8,94.5c0-0.7-0.3-1.4-0.8-2c-0.5-0.5-1.2-0.8-2-0.8v1.2c0.4,0,0.8,0.2,1.1,0.5c0.3,0.3,0.5,0.7,0.5,1.1
			s-0.2,0.8-0.5,1.1c-0.3,0.3-0.7,0.5-1.1,0.5v1.2c0.8,0,1.5-0.3,2-0.8C2.5,95.9,2.8,95.2,2.8,94.5z"/>
		<path class="st0" d="M2,124c-0.5-0.5-1.2-0.8-2-0.8v1.2c0.4,0,0.8,0.2,1.1,0.4c0.6,0.6,0.6,1.6,0,2.3c-0.3,0.3-0.7,0.5-1.1,0.5
			v1.2c0.7,0,1.4-0.3,2-0.8C3,126.9,3.1,125.1,2,124z"/>
		<path class="st0" d="M2,155.5c-0.5-0.5-1.2-0.8-2-0.8v1.2c0.4,0,0.8,0.2,1.1,0.5c0.6,0.6,0.6,1.6,0,2.2c-0.3,0.3-0.7,0.5-1.1,0.5
			v1.2c0.7,0,1.4-0.3,2-0.8C3.1,158.4,3.1,156.6,2,155.5z"/>
		<path class="st0" d="M2,187c-0.5-0.5-1.2-0.8-2-0.8v1.2c0.4,0,0.8,0.2,1.1,0.5c0.6,0.6,0.6,1.6,0,2.2c-0.3,0.3-0.7,0.5-1.1,0.5
			v1.2c0.7,0,1.5-0.3,2-0.8C3.1,189.9,3,188.1,2,187z"/>
		<path class="st0" d="M2,218.5c-0.5-0.5-1.2-0.8-2-0.8v1.2c0.4,0,0.8,0.2,1.1,0.5c0.6,0.6,0.6,1.6,0,2.2C0.8,221.9,0.4,222,0,222
			v1.2c0.7,0,1.5-0.3,2-0.8C3.1,221.4,3.1,219.6,2,218.5z"/>
		<path class="st0" d="M2,250c-0.5-0.5-1.2-0.8-2-0.8v1.2c0.4,0,0.8,0.2,1.1,0.5c0.6,0.6,0.6,1.6,0,2.2c-0.3,0.3-0.7,0.5-1.1,0.5
			v1.2c0.8,0,1.5-0.3,2-0.8C3.1,252.8,3.1,251.1,2,250z"/>
		<path class="st0" d="M0,280.7v1.2c0.4,0,0.8,0.2,1.1,0.4c0.3,0.3,0.5,0.7,0.5,1.1h1.2c0-0.7-0.3-1.4-0.8-2
			C1.5,281,0.7,280.7,0,280.7z"/>
		<path class="st0" d="M13.8,13.8c-0.5,0.5-0.8,1.2-0.8,2c0,0.7,0.3,1.4,0.8,2c0.5,0.5,1.2,0.8,2,0.8c0.7,0,1.4-0.3,2-0.8
			c1.1-1.1,1.1-2.9,0-3.9C16.7,12.7,14.8,12.7,13.8,13.8z M16.9,16.9c-0.3,0.3-0.7,0.5-1.1,0.5c-0.4,0-0.8-0.1-1.1-0.5
			c-0.6-0.6-0.6-1.6,0-2.2c0.3-0.3,0.7-0.5,1.1-0.5c0.4,0,0.8,0.2,1.1,0.5C17.5,15.2,17.5,16.3,16.9,16.9z"/>
		<path class="st0" d="M31.5,2.8c0.7,0,1.4-0.3,2-0.8c0.5-0.5,0.8-1.2,0.8-2h-1.2c0,0.4-0.2,0.8-0.5,1.1c-0.6,0.6-1.6,0.6-2.2,0
			c-0.3-0.3-0.5-0.7-0.5-1.1h-1.2c0,0.7,0.3,1.4,0.8,2C30.1,2.5,30.8,2.8,31.5,2.8z"/>
		<path class="st0" d="M13.8,45.3c-0.5,0.5-0.8,1.3-0.8,2c0,0.7,0.3,1.4,0.8,2c0.5,0.5,1.2,0.8,2,0.8c0.7,0,1.4-0.3,2-0.8
			c1.1-1.1,1.1-2.9,0-3.9C16.6,44.2,14.9,44.2,13.8,45.3z M16.9,48.4c-0.3,0.3-0.7,0.5-1.1,0.5c-0.4,0-0.8-0.1-1.1-0.5
			c-0.6-0.6-0.6-1.6,0-2.2c0.3-0.3,0.7-0.5,1.1-0.5c0.4,0,0.8,0.1,1.1,0.5C17.5,46.7,17.5,47.7,16.9,48.4z"/>
		<path class="st0" d="M31.5,34.3c0.7,0,1.4-0.3,2-0.8c1.1-1.1,1.1-2.9,0-3.9c-1.1-1.1-2.9-1.1-3.9,0c-0.6,0.5-0.8,1.3-0.8,2
			c0,0.7,0.3,1.4,0.8,2C30.1,34,30.8,34.3,31.5,34.3z M30.4,30.4c0.3-0.3,0.7-0.5,1.1-0.5c0.4,0,0.8,0.1,1.1,0.5
			c0.6,0.6,0.6,1.6,0,2.2c-0.3,0.3-0.7,0.5-1.1,0.5c-0.4,0-0.8-0.1-1.1-0.5C29.8,32,29.8,31,30.4,30.4z"/>
		<path class="st0" d="M47.2,18.5c0.8,0,1.5-0.3,2-0.8c1.1-1.1,1.1-2.9,0-3.9c-1.1-1.1-2.9-1.1-3.9,0c-0.5,0.5-0.8,1.2-0.8,2
			c0,0.8,0.3,1.5,0.8,2C45.8,18.2,46.5,18.5,47.2,18.5z M46.1,14.6c0.3-0.3,0.7-0.5,1.1-0.5c0.4,0,0.8,0.1,1.1,0.5
			c0.6,0.6,0.6,1.6,0,2.2c-0.3,0.3-0.7,0.5-1.1,0.5c-0.4,0-0.8-0.1-1.1-0.5c-0.3-0.3-0.5-0.7-0.5-1.1C45.7,15.3,45.8,14.9,46.1,14.6
			z"/>
		<path class="st0" d="M63,2.8c0.7,0,1.4-0.3,2-0.8c0.5-0.5,0.8-1.2,0.8-2h-1.2c0,0.4-0.2,0.8-0.5,1.1c-0.6,0.6-1.6,0.6-2.2,0
			c-0.3-0.3-0.5-0.7-0.5-1.1h-1.2c0,0.7,0.3,1.4,0.8,2C61.6,2.5,62.3,2.8,63,2.8z"/>
		<path class="st0" d="M13.8,76.8c-1.1,1.1-1.1,2.8,0,3.9c0.5,0.5,1.3,0.8,2,0.8c0.7,0,1.4-0.3,2-0.8c1.1-1.1,1.1-2.8,0-3.9
			C16.6,75.7,14.9,75.7,13.8,76.8z M16.9,79.9c-0.6,0.6-1.6,0.6-2.2,0c-0.6-0.6-0.6-1.6,0-2.2c0.3-0.3,0.7-0.5,1.1-0.5
			c0.4,0,0.8,0.2,1.1,0.5C17.5,78.2,17.5,79.2,16.9,79.9z"/>
		<path class="st0" d="M33.5,61c-1.1-1.1-2.9-1.1-3.9,0c-1.1,1.1-1.1,2.8,0,3.9c0.5,0.5,1.2,0.8,2,0.8c0.7,0,1.4-0.3,2-0.8
			C34.6,63.9,34.6,62.1,33.5,61z M32.6,64.1c-0.6,0.6-1.6,0.6-2.2,0c-0.6-0.6-0.6-1.6,0-2.2c0.3-0.3,0.7-0.5,1.1-0.5
			c0.4,0,0.8,0.2,1.1,0.5C33.2,62.5,33.2,63.5,32.6,64.1z"/>
		<path class="st0" d="M49.2,45.3c-1.1-1.1-2.9-1.1-3.9,0c-1.1,1.1-1.1,2.8,0,3.9c0.5,0.5,1.2,0.8,2,0.8c0.7,0,1.4-0.3,2-0.8
			C50.3,48.1,50.3,46.4,49.2,45.3z M48.4,48.4c-0.6,0.6-1.6,0.6-2.2,0c-0.6-0.6-0.6-1.6,0-2.2c0.3-0.3,0.7-0.5,1.1-0.5
			c0.4,0,0.8,0.1,1.1,0.5C49,46.7,49,47.7,48.4,48.4z"/>
		<path class="st0" d="M65,29.5c-1.1-1.1-2.9-1.1-3.9,0c-0.5,0.5-0.8,1.2-0.8,2c0,0.7,0.3,1.4,0.8,2c0.5,0.5,1.3,0.8,2,0.8
			c0.7,0,1.4-0.3,2-0.8C66.1,32.4,66.1,30.6,65,29.5z M64.1,32.6c-0.3,0.3-0.7,0.5-1.1,0.5c-0.4,0-0.8-0.1-1.1-0.5
			c-0.3-0.3-0.5-0.7-0.5-1.1c0-0.4,0.2-0.8,0.5-1.1c0.3-0.3,0.7-0.5,1.1-0.5c0.4,0,0.8,0.1,1.1,0.5C64.7,31,64.7,32,64.1,32.6z"/>
		<path class="st0" d="M76.8,13.8c-0.5,0.5-0.8,1.2-0.8,2c0,0.8,0.3,1.5,0.8,2c0.5,0.5,1.2,0.8,2,0.8s1.4-0.3,2-0.8
			c0.5-0.5,0.8-1.2,0.8-2c0-0.7-0.3-1.4-0.8-2C79.6,12.7,77.9,12.7,76.8,13.8z M79.9,16.9c-0.3,0.3-0.7,0.5-1.1,0.5
			c-0.4,0-0.8-0.1-1.1-0.5c-0.3-0.3-0.5-0.7-0.5-1.1c0-0.4,0.2-0.8,0.5-1.1c0.3-0.3,0.7-0.5,1.1-0.5c0.4,0,0.8,0.1,1.1,0.5
			c0.3,0.3,0.5,0.7,0.5,1.1C80.3,16.2,80.2,16.6,79.9,16.9z"/>
		<path class="st0" d="M94.5,2.8c0.7,0,1.4-0.3,2-0.8c0.5-0.5,0.8-1.2,0.8-2h-1.2c0,0.4-0.2,0.8-0.5,1.1c-0.6,0.6-1.6,0.6-2.2,0
			c-0.3-0.3-0.5-0.7-0.5-1.1h-1.2c0,0.8,0.3,1.5,0.8,2C93,2.5,93.7,2.8,94.5,2.8z"/>
		<path class="st0" d="M13.8,108.3c-0.5,0.5-0.8,1.3-0.8,2c0,0.7,0.3,1.4,0.8,2c0.5,0.5,1.3,0.8,2,0.8c0.7,0,1.4-0.3,2-0.8
			c1.1-1.1,1.1-2.8,0-3.9C16.6,107.2,14.9,107.2,13.8,108.3z M16.9,111.4c-0.6,0.6-1.6,0.6-2.2,0s-0.6-1.6,0-2.2
			c0.6-0.6,1.6-0.6,2.2,0C17.5,109.7,17.5,110.7,16.9,111.4z"/>
		<path class="st0" d="M33.5,92.5c-1.1-1.1-2.9-1.1-3.9,0c-1.1,1.1-1.1,2.9,0,3.9c0.5,0.5,1.2,0.8,2,0.8c0.7,0,1.4-0.3,2-0.8
			C34.6,95.4,34.6,93.6,33.5,92.5z M32.6,95.6c-0.6,0.6-1.6,0.6-2.2,0c-0.6-0.6-0.6-1.6,0-2.2c0.3-0.3,0.7-0.5,1.1-0.5
			c0.4,0,0.8,0.1,1.1,0.5C33.2,94,33.2,95,32.6,95.6z"/>
		<path class="st0" d="M49.2,76.8c-1.1-1.1-2.9-1.1-3.9,0c-1.1,1.1-1.1,2.8,0,3.9c0.5,0.5,1.2,0.8,2,0.8c0.7,0,1.4-0.3,2-0.8
			C50.3,79.6,50.3,77.9,49.2,76.8z M48.4,79.9c-0.6,0.6-1.6,0.6-2.2,0c-0.6-0.6-0.6-1.6,0-2.2c0.3-0.3,0.7-0.5,1.1-0.5
			c0.4,0,0.8,0.2,1.1,0.5C49,78.2,49,79.2,48.4,79.9z"/>
		<path class="st0" d="M65,61c-1.1-1.1-2.9-1.1-3.9,0c-1.1,1.1-1.1,2.8,0,3.9c0.5,0.5,1.3,0.8,2,0.8c0.7,0,1.4-0.3,2-0.8
			C66.1,63.9,66.1,62.1,65,61z M64.1,64.1c-0.6,0.6-1.6,0.6-2.2,0c-0.6-0.6-0.6-1.6,0-2.2c0.3-0.3,0.7-0.5,1.1-0.5
			c0.4,0,0.8,0.2,1.1,0.5C64.7,62.5,64.7,63.5,64.1,64.1z"/>
		<path class="st0" d="M76.8,45.3c-0.5,0.5-0.8,1.2-0.8,2c0,0.7,0.3,1.4,0.8,2c0.5,0.5,1.3,0.8,2,0.8c0.7,0,1.4-0.3,2-0.8
			c1.1-1.1,1.1-2.9,0-3.9C79.6,44.2,77.9,44.2,76.8,45.3z M79.9,48.4c-0.3,0.3-0.7,0.5-1.1,0.5c-0.4,0-0.8-0.2-1.1-0.5
			c-0.3-0.3-0.5-0.7-0.5-1.1c0-0.4,0.2-0.8,0.5-1.1c0.3-0.3,0.7-0.5,1.1-0.5c0.4,0,0.8,0.1,1.1,0.5C80.5,46.7,80.5,47.7,79.9,48.4z"
			/>
		<path class="st0" d="M92.5,29.5c-0.5,0.5-0.8,1.2-0.8,2c0,0.7,0.3,1.4,0.8,2c0.5,0.5,1.3,0.8,2,0.8c0.7,0,1.4-0.3,2-0.8
			c0.5-0.5,0.8-1.2,0.8-2c0-0.7-0.3-1.4-0.8-2C95.4,28.4,93.6,28.4,92.5,29.5z M95.6,32.6c-0.3,0.3-0.7,0.5-1.1,0.5
			c-0.4,0-0.8-0.1-1.1-0.5c-0.3-0.3-0.5-0.7-0.5-1.1c0-0.4,0.2-0.8,0.5-1.1c0.3-0.3,0.7-0.5,1.1-0.5c0.4,0,0.8,0.1,1.1,0.5
			c0.3,0.3,0.5,0.7,0.5,1.1C96.1,31.9,95.9,32.3,95.6,32.6z"/>
		<path class="st0" d="M108.3,13.8c-0.6,0.5-0.8,1.3-0.8,2c0,0.7,0.3,1.4,0.8,2c0.5,0.5,1.2,0.8,2,0.8c0.7,0,1.4-0.3,2-0.8
			c0.5-0.5,0.8-1.2,0.8-2c0-0.7-0.3-1.4-0.8-2C111.1,12.7,109.4,12.7,108.3,13.8z M111.4,16.9c-0.6,0.6-1.6,0.6-2.2,0
			c-0.6-0.6-0.6-1.6,0-2.2c0.6-0.6,1.6-0.6,2.2,0c0.3,0.3,0.5,0.7,0.5,1.1C111.8,16.2,111.7,16.6,111.4,16.9z"/>
		<path class="st0" d="M127.1,1.1c-0.3,0.3-0.7,0.4-1.1,0.5c-0.4,0-0.8-0.2-1.1-0.5c-0.3-0.3-0.5-0.7-0.5-1.1h-1.2
			c0,0.7,0.3,1.5,0.8,2c0.5,0.5,1.2,0.8,2,0.8c0,0,0,0,0,0c0.7,0,1.4-0.3,2-0.8c0.5-0.5,0.8-1.2,0.8-2h-1.2
			C127.6,0.4,127.4,0.8,127.1,1.1z"/>
		<path class="st0" d="M13.8,139.8c-0.5,0.5-0.8,1.2-0.8,2c0,0.7,0.3,1.4,0.8,2c0.5,0.5,1.3,0.8,2,0.8c0.7,0,1.4-0.3,2-0.8
			c1.1-1.1,1.1-2.9,0-3.9C16.6,138.7,14.9,138.7,13.8,139.8z M16.9,142.9c-0.6,0.6-1.6,0.6-2.2,0s-0.6-1.6,0-2.2
			c0.6-0.6,1.6-0.6,2.2,0C17.5,141.2,17.5,142.2,16.9,142.9z"/>
		<path class="st0" d="M29.5,124c-1.1,1.1-1.1,2.8,0,3.9c0.5,0.5,1.2,0.8,2,0.8c0.7,0,1.4-0.3,2-0.8c1.1-1.1,1.1-2.8,0-3.9
			C32.4,122.9,30.6,122.9,29.5,124z M32.6,127.1c-0.6,0.6-1.6,0.6-2.2,0c-0.6-0.6-0.6-1.6,0-2.2c0.3-0.3,0.7-0.5,1.1-0.5
			c0.4,0,0.8,0.1,1.1,0.5C33.2,125.5,33.2,126.5,32.6,127.1z"/>
		<path class="st0" d="M45.3,108.3c-1.1,1.1-1.1,2.8,0,3.9c0.5,0.5,1.2,0.8,2,0.8c0.7,0,1.4-0.3,2-0.8c1.1-1.1,1.1-2.8,0-3.9
			C48.1,107.2,46.4,107.2,45.3,108.3z M48.4,111.4c-0.6,0.6-1.6,0.6-2.2,0c-0.6-0.6-0.6-1.6,0-2.2c0.3-0.3,0.7-0.5,1.1-0.5
			c0.4,0,0.8,0.1,1.1,0.5C49,109.7,49,110.7,48.4,111.4z"/>
		<path class="st0" d="M65,92.5c-1.1-1.1-2.9-1.1-3.9,0c-1.1,1.1-1.1,2.9,0,3.9c0.5,0.5,1.3,0.8,2,0.8c0.7,0,1.4-0.3,2-0.8
			C66.1,95.4,66.1,93.6,65,92.5z M64.1,95.6c-0.6,0.6-1.6,0.6-2.2,0c-0.6-0.6-0.6-1.6,0-2.2c0.3-0.3,0.7-0.5,1.1-0.5
			c0.4,0,0.8,0.1,1.1,0.5C64.7,94,64.7,95,64.1,95.6z"/>
		<path class="st0" d="M76.8,76.8c-1.1,1.1-1.1,2.8,0,3.9c0.5,0.5,1.3,0.8,2,0.8c0.7,0,1.4-0.3,2-0.8c1.1-1.1,1.1-2.8,0-3.9
			C79.6,75.7,77.9,75.7,76.8,76.8z M79.9,79.9c-0.6,0.6-1.6,0.6-2.2,0c-0.6-0.6-0.6-1.6,0-2.2c0.3-0.3,0.7-0.5,1.1-0.5
			c0.4,0,0.8,0.2,1.1,0.5C80.5,78.2,80.5,79.2,79.9,79.9z"/>
		<path class="st0" d="M92.5,61c-0.5,0.5-0.8,1.2-0.8,2c0,0.7,0.3,1.4,0.8,2c0.5,0.5,1.3,0.8,2,0.8c0.7,0,1.4-0.3,2-0.8
			c1.1-1.1,1.1-2.9,0-3.9C95.4,59.9,93.6,59.9,92.5,61z M95.6,64.1c-0.3,0.3-0.7,0.5-1.1,0.5c-0.4,0-0.8-0.2-1.1-0.5
			c-0.3-0.3-0.5-0.7-0.5-1.1c0-0.4,0.2-0.8,0.5-1.1c0.3-0.3,0.7-0.5,1.1-0.5c0.4,0,0.8,0.2,1.1,0.5C96.2,62.5,96.2,63.5,95.6,64.1z"
			/>
		<path class="st0" d="M108.3,45.3c-0.5,0.5-0.8,1.2-0.8,2c0,0.7,0.3,1.4,0.8,2c0.5,0.5,1.2,0.8,2,0.8c0.7,0,1.4-0.3,2-0.8
			c0.5-0.5,0.8-1.2,0.8-2c0-0.7-0.3-1.4-0.8-2C111.1,44.2,109.4,44.2,108.3,45.3z M111.4,48.4c-0.3,0.3-0.7,0.5-1.1,0.5
			c-0.4,0-0.8-0.2-1.1-0.5c-0.3-0.3-0.5-0.7-0.5-1.1c0-0.4,0.2-0.8,0.5-1.1c0.3-0.3,0.7-0.5,1.1-0.5c0.4,0,0.8,0.1,1.1,0.5
			c0.3,0.3,0.5,0.7,0.5,1.1C111.8,47.7,111.7,48.1,111.4,48.4z"/>
		<path class="st0" d="M126,34.3c0.7,0,1.4-0.3,2-0.8c0.5-0.5,0.8-1.2,0.8-2c0-0.7-0.3-1.4-0.8-2c-1.1-1.1-2.9-1.1-3.9,0
			c-0.5,0.5-0.8,1.3-0.8,2c0,0.7,0.3,1.4,0.8,2C124.6,34,125.3,34.3,126,34.3z M124.9,30.4c0.6-0.6,1.6-0.6,2.2,0
			c0.3,0.3,0.5,0.7,0.5,1.1c0,0.4-0.2,0.8-0.5,1.1c-0.6,0.6-1.6,0.6-2.2,0C124.3,32,124.3,31,124.9,30.4z"/>
		<path class="st0" d="M141.7,18.5c0.7,0,1.4-0.3,2-0.8c1.1-1.1,1.1-2.9,0-3.9c-1.1-1.1-2.9-1.1-3.9,0c-0.5,0.5-0.8,1.3-0.8,2
			c0,0.7,0.3,1.4,0.8,2C140.3,18.3,141,18.5,141.7,18.5z M140.6,14.6c0.6-0.6,1.6-0.6,2.2,0c0.6,0.6,0.6,1.6,0,2.2
			c-0.6,0.6-1.6,0.6-2.2,0C140,16.3,140,15.2,140.6,14.6z"/>
		<path class="st0" d="M158.6,1.1c-0.3,0.3-0.7,0.5-1.1,0.5c0,0,0,0,0,0c-0.4,0-0.8-0.2-1.1-0.5c-0.3-0.3-0.5-0.7-0.5-1.1h-1.2
			c0,0.7,0.3,1.5,0.8,2c0.5,0.5,1.2,0.8,2,0.8c0,0,0,0,0,0c0.7,0,1.4-0.3,2-0.8c0.5-0.5,0.8-1.2,0.8-2h-1.2
			C159.1,0.4,158.9,0.8,158.6,1.1z"/>
		<path class="st0" d="M13.8,171.3c-0.5,0.5-0.8,1.2-0.8,2c0,0.7,0.3,1.4,0.8,2c0.5,0.5,1.3,0.8,2,0.8c0.7,0,1.4-0.3,2-0.8
			c0.5-0.5,0.8-1.2,0.8-2c0-0.7-0.3-1.4-0.8-2C16.6,170.2,14.9,170.2,13.8,171.3z M16.9,174.3c-0.6,0.6-1.6,0.6-2.2,0
			c-0.6-0.6-0.6-1.6,0-2.2c0.6-0.6,1.6-0.6,2.2,0c0.3,0.3,0.5,0.7,0.5,1.1C17.3,173.7,17.2,174,16.9,174.3z"/>
		<path class="st0" d="M31.5,160.3c0.7,0,1.4-0.3,2-0.8c1.1-1.1,1.1-2.8,0-3.9c-1.1-1.1-2.9-1.1-3.9,0c-0.6,0.5-0.8,1.2-0.8,2
			c0,0.7,0.3,1.4,0.8,2C30.1,160,30.8,160.3,31.5,160.3z M30.4,156.4c0.6-0.6,1.6-0.6,2.2,0c0.6,0.6,0.6,1.6,0,2.2
			c-0.6,0.6-1.6,0.6-2.2,0C29.8,158,29.8,157,30.4,156.4z"/>
		<path class="st0" d="M47.2,144.5c0.7,0,1.4-0.3,2-0.8c1.1-1.1,1.1-2.9,0-3.9c-1.1-1.1-2.9-1.1-3.9,0c-0.5,0.5-0.8,1.2-0.8,2
			c0,0.7,0.3,1.4,0.8,2C45.8,144.2,46.5,144.5,47.2,144.5z M46.1,140.6c0.6-0.6,1.6-0.6,2.2,0c0.6,0.6,0.6,1.6,0,2.2
			c-0.6,0.6-1.6,0.6-2.2,0C45.5,142.2,45.5,141.2,46.1,140.6z"/>
		<path class="st0" d="M65,124c-1.1-1.1-2.9-1.1-3.9,0c-1.1,1.1-1.1,2.8,0,3.9c0.5,0.5,1.3,0.8,2,0.8c0.7,0,1.4-0.3,2-0.8
			C66.1,126.9,66.1,125.1,65,124z M64.1,127.1c-0.6,0.6-1.6,0.6-2.2,0s-0.6-1.6,0-2.2c0.3-0.3,0.7-0.5,1.1-0.5
			c0.4,0,0.8,0.1,1.1,0.5C64.7,125.5,64.7,126.5,64.1,127.1z"/>
		<path class="st0" d="M76.8,108.3c-1.1,1.1-1.1,2.8,0,3.9c0.5,0.5,1.3,0.8,2,0.8c0.7,0,1.4-0.3,2-0.8c1.1-1.1,1.1-2.8,0-3.9
			C79.6,107.2,77.9,107.2,76.8,108.3z M79.9,111.4c-0.6,0.6-1.6,0.6-2.2,0s-0.6-1.6,0-2.2c0.3-0.3,0.7-0.5,1.1-0.5
			c0.4,0,0.8,0.1,1.1,0.5C80.5,109.7,80.5,110.7,79.9,111.4z"/>
		<path class="st0" d="M92.5,92.5c-1.1,1.1-1.1,2.9,0,3.9c0.5,0.5,1.3,0.8,2,0.8c0.7,0,1.4-0.3,2-0.8c1.1-1.1,1.1-2.8,0-3.9
			C95.4,91.4,93.6,91.4,92.5,92.5z M95.6,95.6c-0.6,0.6-1.6,0.6-2.2,0c-0.6-0.6-0.6-1.6,0-2.2c0.3-0.3,0.7-0.5,1.1-0.5
			c0.4,0,0.8,0.1,1.1,0.5C96.2,94,96.2,95,95.6,95.6z"/>
		<path class="st0" d="M108.3,76.8c-0.5,0.5-0.8,1.2-0.8,2c0,0.7,0.3,1.4,0.8,2c0.5,0.5,1.2,0.8,2,0.8c0.7,0,1.4-0.3,2-0.8
			c1.1-1.1,1.1-2.8,0-3.9C111.1,75.7,109.4,75.7,108.3,76.8z M111.4,79.9c-0.3,0.3-0.7,0.5-1.1,0.5c-0.4,0-0.8-0.1-1.1-0.5
			c-0.3-0.3-0.5-0.7-0.5-1.1c0-0.4,0.2-0.8,0.5-1.1c0.3-0.3,0.7-0.5,1.1-0.5c0.4,0,0.8,0.2,1.1,0.5C112,78.2,112,79.2,111.4,79.9z"
			/>
		<path class="st0" d="M126,65.8c0.7,0,1.4-0.3,2-0.8c0.5-0.5,0.8-1.2,0.8-2c0-0.8-0.3-1.4-0.8-2c-1.1-1.1-2.9-1.1-3.9,0
			c-0.5,0.5-0.8,1.2-0.8,2c0,0.7,0.3,1.4,0.8,2C124.6,65.5,125.3,65.8,126,65.8z M124.9,61.9c0.3-0.3,0.7-0.5,1.1-0.5
			c0.4,0,0.8,0.2,1.1,0.5c0.3,0.3,0.5,0.7,0.5,1.1c0,0.4-0.2,0.8-0.5,1.1c-0.3,0.3-0.7,0.5-1.1,0.5c-0.4,0-0.8-0.2-1.1-0.5
			c-0.3-0.3-0.5-0.7-0.5-1.1C124.4,62.6,124.6,62.2,124.9,61.9z"/>
		<path class="st0" d="M139.8,45.3c-0.5,0.5-0.8,1.3-0.8,2c0,0.7,0.3,1.4,0.8,2c0.5,0.5,1.3,0.8,2,0.8c0.7,0,1.4-0.3,2-0.8
			c0.5-0.5,0.8-1.2,0.8-2c0-0.7-0.3-1.4-0.8-2C142.6,44.2,140.9,44.2,139.8,45.3z M142.9,48.4c-0.6,0.6-1.6,0.6-2.2,0
			c-0.6-0.6-0.6-1.6,0-2.2c0.6-0.6,1.6-0.6,2.2,0c0.3,0.3,0.5,0.7,0.5,1.1C143.3,47.7,143.2,48.1,142.9,48.4z"/>
		<path class="st0" d="M157.5,34.3c0.7,0,1.4-0.3,2-0.8c1.1-1.1,1.1-2.9,0-3.9c-1.1-1.1-2.9-1.1-3.9,0c-0.5,0.5-0.8,1.3-0.8,2
			c0,0.7,0.3,1.4,0.8,2C156.1,34,156.8,34.3,157.5,34.3z M156.4,30.4c0.6-0.6,1.6-0.6,2.2,0s0.6,1.6,0,2.2c-0.6,0.6-1.6,0.6-2.2,0
			C155.7,32,155.7,31,156.4,30.4z"/>
		<path class="st0" d="M171.3,13.8c-1.1,1.1-1.1,2.9,0,3.9c0.5,0.5,1.3,0.8,2,0.8c0.7,0,1.4-0.3,2-0.8c1.1-1.1,1.1-2.9,0-3.9
			C174.1,12.7,172.3,12.7,171.3,13.8z M174.4,16.9c-0.6,0.6-1.6,0.6-2.2,0c-0.6-0.6-0.6-1.6,0-2.2c0.3-0.3,0.7-0.5,1.1-0.5
			c0.4,0,0.8,0.1,1.1,0.5C175,15.2,175,16.3,174.4,16.9z"/>
		<path class="st0" d="M189,2.8c0.7,0,1.4-0.3,2-0.8c0.5-0.5,0.8-1.2,0.8-2h-1.2c0,0.4-0.2,0.8-0.5,1.1c-0.6,0.6-1.6,0.6-2.2,0
			c-0.3-0.3-0.5-0.7-0.5-1.1h-1.2c0,0.7,0.3,1.4,0.8,2C187.5,2.5,188.2,2.8,189,2.8z"/>
		<path class="st0" d="M13.8,202.8c-0.5,0.5-0.8,1.2-0.8,2s0.3,1.4,0.8,2c0.5,0.5,1.3,0.8,2,0.8c0.7,0,1.4-0.3,2-0.8
			c0.5-0.5,0.8-1.2,0.8-2s-0.3-1.4-0.8-2C16.7,201.7,14.8,201.7,13.8,202.8z M16.9,205.8c-0.6,0.6-1.6,0.6-2.2,0
			c-0.3-0.3-0.5-0.7-0.5-1.1c0-0.4,0.2-0.8,0.5-1.1c0.3-0.3,0.7-0.5,1.1-0.5c0.4,0,0.8,0.2,1.1,0.5c0.3,0.3,0.5,0.7,0.5,1.1
			C17.3,205.1,17.2,205.5,16.9,205.8z"/>
		<path class="st0" d="M29.5,187c-0.6,0.5-0.8,1.3-0.8,2c0,0.7,0.3,1.4,0.8,2c0.5,0.5,1.2,0.8,2,0.8c0.7,0,1.4-0.3,2-0.8
			c0.5-0.5,0.8-1.2,0.8-2s-0.3-1.4-0.8-2C32.4,186,30.6,186,29.5,187z M32.6,190.1c-0.6,0.6-1.6,0.6-2.2,0c-0.6-0.6-0.6-1.6,0-2.2
			c0.6-0.6,1.6-0.6,2.2,0c0.3,0.3,0.5,0.7,0.5,1.1C33.1,189.4,32.9,189.8,32.6,190.1z"/>
		<path class="st0" d="M47.2,176c0.7,0,1.4-0.3,2-0.8c1.1-1.1,1.1-2.8,0-3.9c-1.1-1.1-2.9-1.1-3.9,0c-0.5,0.5-0.8,1.2-0.8,2
			c0,0.7,0.3,1.4,0.8,2C45.8,175.7,46.5,176,47.2,176z M46.1,172.1c0.6-0.6,1.7-0.6,2.2,0c0.6,0.6,0.6,1.6,0,2.2
			c-0.6,0.6-1.6,0.6-2.2,0C45.5,173.7,45.5,172.7,46.1,172.1z"/>
		<path class="st0" d="M65,155.5c-1.1-1-2.9-1-3.9,0c-0.5,0.5-0.8,1.2-0.8,2c0,0.7,0.3,1.4,0.8,2c0.5,0.5,1.3,0.8,2,0.8
			c0.7,0,1.4-0.3,2-0.8C66.1,158.4,66.1,156.6,65,155.5z M64.1,158.6c-0.6,0.6-1.6,0.6-2.2,0c-0.6-0.6-0.6-1.6,0-2.2
			c0.6-0.6,1.6-0.6,2.2,0C64.7,157,64.7,158,64.1,158.6z"/>
		<path class="st0" d="M76.8,139.8c-0.5,0.5-0.8,1.2-0.8,2c0,0.7,0.3,1.4,0.8,2c0.5,0.5,1.3,0.8,2,0.8c0.7,0,1.4-0.3,2-0.8
			c1.1-1.1,1.1-2.9,0-3.9C79.6,138.7,77.9,138.7,76.8,139.8z M79.9,142.9c-0.6,0.6-1.6,0.6-2.2,0c-0.6-0.6-0.6-1.6,0-2.2
			c0.6-0.6,1.6-0.6,2.2,0C80.5,141.2,80.5,142.2,79.9,142.9z"/>
		<path class="st0" d="M92.5,124c-0.5,0.5-0.8,1.3-0.8,2c0,0.7,0.3,1.4,0.8,2c0.5,0.5,1.3,0.8,2,0.8c0.7,0,1.4-0.3,2-0.8
			c1.1-1.1,1.1-2.8,0-3.9C95.4,122.9,93.6,122.9,92.5,124z M95.6,127.1c-0.6,0.6-1.6,0.6-2.2,0s-0.6-1.6,0-2.2
			c0.6-0.6,1.6-0.6,2.2,0C96.2,125.5,96.2,126.5,95.6,127.1z"/>
		<path class="st0" d="M108.3,108.3c-0.5,0.5-0.8,1.2-0.8,2c0,0.7,0.3,1.4,0.8,2c0.5,0.5,1.2,0.8,2,0.8c0.7,0,1.4-0.3,2-0.8
			c1.1-1.1,1.1-2.8,0-3.9C111.1,107.2,109.4,107.2,108.3,108.3z M111.4,111.4c-0.6,0.6-1.6,0.6-2.2,0c-0.3-0.3-0.5-0.7-0.5-1.1
			c0-0.4,0.2-0.8,0.5-1.1c0.3-0.3,0.7-0.5,1.1-0.5c0.4,0,0.8,0.1,1.1,0.5C112,109.7,112,110.7,111.4,111.4z"/>
		<path class="st0" d="M126,97.3c0.7,0,1.4-0.3,2-0.8c1.1-1.1,1.1-2.8,0-3.9c-1.1-1.1-2.9-1.1-3.9,0c-0.5,0.5-0.8,1.2-0.8,2
			c0,0.8,0.3,1.4,0.8,2C124.6,97,125.3,97.3,126,97.3z M124.9,93.4c0.3-0.3,0.7-0.5,1.1-0.5c0.4,0,0.8,0.1,1.1,0.5
			c0.6,0.6,0.6,1.6,0,2.2c-0.6,0.6-1.6,0.6-2.2,0c-0.3-0.3-0.5-0.7-0.5-1.1C124.4,94.1,124.6,93.7,124.9,93.4z"/>
		<path class="st0" d="M139.8,76.8c-0.5,0.5-0.8,1.2-0.8,2c0,0.7,0.3,1.4,0.8,2c0.5,0.5,1.3,0.8,2,0.8c0.7,0,1.4-0.3,2-0.8
			c0.5-0.5,0.8-1.2,0.8-2c0-0.8-0.3-1.4-0.8-2C142.6,75.7,140.9,75.7,139.8,76.8z M142.9,79.9c-0.6,0.6-1.6,0.6-2.2,0
			c-0.3-0.3-0.5-0.7-0.5-1.1c0-0.4,0.2-0.8,0.5-1.1c0.3-0.3,0.7-0.5,1.1-0.5c0.4,0,0.8,0.2,1.1,0.5c0.3,0.3,0.5,0.7,0.5,1.1
			C143.3,79.2,143.2,79.6,142.9,79.9z"/>
		<path class="st0" d="M157.5,65.8c0.7,0,1.4-0.3,2-0.8c0.5-0.5,0.8-1.2,0.8-2c0-0.8-0.3-1.4-0.8-2c-1.1-1.1-2.9-1.1-3.9,0
			c-0.5,0.5-0.8,1.2-0.8,2c0,0.7,0.3,1.4,0.8,2C156.1,65.5,156.8,65.8,157.5,65.8z M156.4,61.9c0.6-0.6,1.6-0.6,2.2,0
			c0.3,0.3,0.5,0.7,0.5,1.1c0,0.4-0.2,0.8-0.5,1.1c-0.6,0.6-1.6,0.6-2.2,0C155.7,63.5,155.7,62.5,156.4,61.9z"/>
		<path class="st0" d="M171.3,45.3c-0.5,0.5-0.8,1.3-0.8,2c0,0.7,0.3,1.4,0.8,2c0.5,0.5,1.3,0.8,2,0.8c0.7,0,1.4-0.3,2-0.8
			c1.1-1.1,1.1-2.9,0-3.9C174.1,44.2,172.4,44.2,171.3,45.3z M174.4,48.4c-0.6,0.6-1.6,0.6-2.2,0c-0.6-0.6-0.6-1.6,0-2.2
			s1.6-0.6,2.2,0C175,46.7,175,47.7,174.4,48.4z"/>
		<path class="st0" d="M187,29.5c-1.1,1.1-1.1,2.8,0,3.9c0.5,0.5,1.2,0.8,2,0.8c0.7,0,1.4-0.3,2-0.8c1.1-1.1,1.1-2.9,0-3.9
			C189.9,28.4,188.1,28.4,187,29.5z M190.1,30.4c0.6,0.6,0.6,1.6,0,2.2c-0.6,0.6-1.6,0.6-2.2,0c-0.6-0.6-0.6-1.6,0-2.2
			c0.3-0.3,0.7-0.5,1.1-0.5C189.4,29.9,189.8,30.1,190.1,30.4z"/>
		<path class="st0" d="M204.7,18.5c0.7,0,1.4-0.3,2-0.8c1.1-1.1,1.1-2.9,0-3.9c-1.1-1.1-2.8-1.1-3.9,0c-1.1,1.1-1.1,2.9,0,3.9
			C203.3,18.3,204,18.5,204.7,18.5z M203.6,14.6c0.3-0.3,0.7-0.5,1.1-0.5c0.4,0,0.8,0.1,1.1,0.5c0.6,0.6,0.6,1.6,0,2.2
			c-0.6,0.6-1.6,0.6-2.2,0C203,16.3,203,15.2,203.6,14.6z"/>
		<path class="st0" d="M220.5,2.8C220.5,2.8,220.5,2.8,220.5,2.8c0.8,0,1.5-0.3,2-0.8c0.5-0.5,0.8-1.2,0.8-2h-1.2
			c0,0.4-0.2,0.8-0.5,1.1c-0.3,0.3-0.7,0.5-1.1,0.5c0,0,0,0,0,0c-0.4,0-0.8-0.2-1.1-0.5c-0.3-0.3-0.5-0.7-0.5-1.1h-1.2
			c0,0.7,0.3,1.4,0.8,2C219,2.5,219.7,2.8,220.5,2.8z"/>
		<path class="st0" d="M13.8,234.3c-0.5,0.5-0.8,1.2-0.8,2c0,0.7,0.3,1.4,0.8,2c0.5,0.5,1.2,0.8,2,0.8c0.7,0,1.4-0.3,2-0.8
			c0.5-0.5,0.8-1.2,0.8-2c0-0.8-0.3-1.5-0.8-2C16.7,233.2,14.8,233.2,13.8,234.3z M16.9,237.3c-0.3,0.3-0.7,0.5-1.1,0.5
			c-0.4,0-0.8-0.2-1.1-0.5c-0.3-0.3-0.5-0.7-0.5-1.1c0-0.4,0.2-0.8,0.5-1.1c0.3-0.3,0.7-0.5,1.1-0.5c0.4,0,0.8,0.2,1.1,0.5
			c0.3,0.3,0.5,0.7,0.5,1.1C17.3,236.6,17.2,237,16.9,237.3z"/>
		<path class="st0" d="M29.5,218.5c-0.5,0.5-0.8,1.2-0.8,2c0,0.7,0.3,1.4,0.8,2c0.5,0.5,1.2,0.8,2,0.8c0.7,0,1.4-0.3,2-0.8
			c0.5-0.5,0.8-1.2,0.8-2c0-0.8-0.3-1.5-0.8-2C32.4,217.5,30.6,217.5,29.5,218.5z M32.6,221.6c-0.3,0.3-0.7,0.5-1.1,0.5
			s-0.8-0.2-1.1-0.5s-0.5-0.7-0.5-1.1c0-0.4,0.2-0.8,0.5-1.1c0.3-0.3,0.7-0.5,1.1-0.5c0.4,0,0.8,0.2,1.1,0.5
			c0.3,0.3,0.5,0.7,0.5,1.1C33.1,220.9,32.9,221.3,32.6,221.6z"/>
		<path class="st0" d="M45.3,202.8c-1.1,1.1-1.1,2.9,0,3.9c0.5,0.5,1.2,0.8,2,0.8c0.8,0,1.5-0.3,2-0.8c0.5-0.5,0.8-1.2,0.8-2
			s-0.3-1.4-0.8-2C48.2,201.7,46.3,201.7,45.3,202.8z M48.4,205.8c-0.6,0.6-1.6,0.6-2.2,0c-0.6-0.6-0.6-1.6,0-2.2
			c0.3-0.3,0.7-0.5,1.1-0.5c0.4,0,0.8,0.2,1.1,0.5c0.3,0.3,0.5,0.7,0.5,1.1C48.8,205.1,48.7,205.5,48.4,205.8z"/>
		<path class="st0" d="M65,187c-1.1-1-2.9-1-3.9,0c-0.5,0.5-0.8,1.3-0.8,2c0,0.7,0.3,1.4,0.8,2c0.5,0.5,1.3,0.8,2,0.8
			c0.7,0,1.4-0.3,2-0.8C66.1,189.9,66.1,188.1,65,187z M64.1,190.1c-0.6,0.6-1.6,0.6-2.2,0c-0.6-0.6-0.6-1.6,0-2.2
			c0.6-0.6,1.6-0.6,2.2,0C64.7,188.5,64.7,189.5,64.1,190.1z"/>
		<path class="st0" d="M76.8,171.3c-0.5,0.5-0.8,1.2-0.8,2c0,0.7,0.3,1.4,0.8,2c0.5,0.5,1.2,0.8,2,0.8s1.4-0.3,2-0.8
			c1.1-1.1,1.1-2.8,0-3.9C79.7,170.2,77.8,170.2,76.8,171.3z M79.9,174.3c-0.6,0.6-1.6,0.6-2.2,0c-0.6-0.6-0.6-1.6,0-2.2
			c0.6-0.6,1.6-0.6,2.2,0C80.5,172.7,80.5,173.7,79.9,174.3z"/>
		<path class="st0" d="M92.5,155.5c-0.5,0.5-0.8,1.2-0.8,2c0,0.7,0.3,1.4,0.8,2c0.5,0.5,1.3,0.8,2,0.8c0.7,0,1.4-0.3,2-0.8
			c1.1-1.1,1.1-2.8,0-3.9C95.4,154.5,93.6,154.5,92.5,155.5z M95.6,158.6c-0.6,0.6-1.6,0.6-2.2,0c-0.6-0.6-0.6-1.6,0-2.2
			c0.6-0.6,1.6-0.6,2.2,0C96.2,157,96.2,158,95.6,158.6z"/>
		<path class="st0" d="M108.3,139.8c-0.6,0.5-0.8,1.2-0.8,2c0,0.7,0.3,1.4,0.8,2c0.5,0.5,1.2,0.8,2,0.8c0.7,0,1.4-0.3,2-0.8
			c1.1-1.1,1.1-2.9,0-3.9C111.2,138.7,109.3,138.7,108.3,139.8z M111.4,142.9c-0.6,0.6-1.6,0.6-2.2,0c-0.6-0.6-0.6-1.6,0-2.2
			c0.6-0.6,1.6-0.6,2.2,0C112,141.2,112,142.2,111.4,142.9z"/>
		<path class="st0" d="M126,128.8c0.7,0,1.4-0.3,2-0.8c1.1-1.1,1.1-2.8,0-3.9c-1-1-2.9-1-3.9,0c-0.5,0.5-0.8,1.2-0.8,2
			c0,0.7,0.3,1.4,0.8,2C124.6,128.5,125.3,128.8,126,128.8z M124.9,124.9c0.3-0.3,0.7-0.5,1.1-0.5c0.4,0,0.8,0.2,1.1,0.5
			c0.6,0.6,0.6,1.6,0,2.2c-0.6,0.6-1.6,0.6-2.2,0c-0.3-0.3-0.5-0.7-0.5-1.1C124.4,125.6,124.6,125.2,124.9,124.9z"/>
		<path class="st0" d="M139.8,108.3c-0.5,0.5-0.8,1.2-0.8,2c0,0.7,0.3,1.4,0.8,2c0.5,0.5,1.3,0.8,2,0.8c0.7,0,1.4-0.3,2-0.8
			c0.5-0.5,0.8-1.2,0.8-2c0-0.7-0.3-1.4-0.8-2C142.7,107.2,140.8,107.2,139.8,108.3z M142.9,111.4c-0.6,0.6-1.6,0.6-2.2,0
			c-0.3-0.3-0.5-0.7-0.5-1.1c0-0.4,0.2-0.8,0.5-1.1c0.3-0.3,0.7-0.5,1.1-0.5c0.4,0,0.8,0.2,1.1,0.5c0.3,0.3,0.5,0.7,0.5,1.1
			C143.3,110.7,143.2,111.1,142.9,111.4z"/>
		<path class="st0" d="M157.5,97.3c0.7,0,1.4-0.3,2-0.8c0.5-0.5,0.8-1.2,0.8-2c0-0.7-0.3-1.4-0.8-2c-1-1-2.9-1-3.9,0
			c-0.5,0.5-0.8,1.2-0.8,2c0,0.8,0.3,1.4,0.8,2C156.1,97,156.8,97.3,157.5,97.3z M156.4,93.4c0.3-0.3,0.7-0.5,1.1-0.5
			c0.4,0,0.8,0.2,1.1,0.5c0.3,0.3,0.5,0.7,0.5,1.1c0,0.4-0.2,0.8-0.5,1.1c-0.6,0.6-1.6,0.6-2.2,0C155.7,95,155.7,94,156.4,93.4z"/>
		<path class="st0" d="M171.3,76.8c-0.5,0.5-0.8,1.2-0.8,2c0,0.7,0.3,1.4,0.8,2c0.5,0.5,1.3,0.8,2,0.8c0.7,0,1.4-0.3,2-0.8
			c0.5-0.5,0.8-1.2,0.8-2c0-0.8-0.3-1.4-0.8-2C174.2,75.7,172.3,75.7,171.3,76.8z M174.4,79.9c-0.6,0.6-1.6,0.6-2.2,0
			c-0.6-0.6-0.6-1.6,0-2.2c0.6-0.6,1.6-0.6,2.2,0c0.3,0.3,0.5,0.7,0.5,1.1C174.8,79.2,174.7,79.6,174.4,79.9z"/>
		<path class="st0" d="M189,65.8c0.7,0,1.4-0.3,2-0.8c1.1-1.1,1.1-2.9,0-3.9c-1.1-1.1-2.8-1.1-3.9,0c-0.5,0.5-0.8,1.2-0.8,2
			c0,0.7,0.3,1.4,0.8,2C187.6,65.5,188.3,65.8,189,65.8z M187.9,61.9c0.6-0.6,1.6-0.6,2.2,0c0.6,0.6,0.6,1.6,0,2.2
			c-0.6,0.6-1.6,0.6-2.2,0C187.2,63.5,187.2,62.5,187.9,61.9z"/>
		<path class="st0" d="M204.7,50c0.7,0,1.4-0.3,2-0.8c1.1-1.1,1.1-2.9,0-3.9c-1.1-1.1-2.8-1.1-3.9,0c-0.5,0.5-0.8,1.3-0.8,2
			c0,0.7,0.3,1.4,0.8,2C203.3,49.8,204,50,204.7,50z M203.6,46.1c0.6-0.6,1.6-0.6,2.2,0c0.6,0.6,0.6,1.6,0,2.2
			c-0.6,0.6-1.6,0.6-2.2,0C203,47.7,203,46.7,203.6,46.1z"/>
		<path class="st0" d="M222.4,29.5c-1.1-1.1-2.8-1.1-3.9,0c-0.5,0.5-0.8,1.3-0.8,2c0,0.7,0.3,1.4,0.8,2c0.5,0.5,1.3,0.8,2,0.8
			c0.7,0,1.4-0.3,2-0.8C223.5,32.4,223.5,30.6,222.4,29.5z M221.6,32.6c-0.6,0.6-1.6,0.6-2.2,0c-0.6-0.6-0.6-1.6,0-2.2
			c0.6-0.6,1.6-0.6,2.2,0C222.2,31,222.2,32,221.6,32.6z"/>
		<path class="st0" d="M234.3,13.8c-0.5,0.5-0.8,1.3-0.8,2c0,0.7,0.3,1.4,0.8,2s1.3,0.8,2,0.8c0.7,0,1.4-0.3,2-0.8
			c1.1-1.1,1.1-2.9,0-3.9C237.1,12.7,235.3,12.7,234.3,13.8z M237.3,16.9c-0.6,0.6-1.6,0.6-2.2,0c-0.6-0.6-0.6-1.6,0-2.2
			c0.6-0.6,1.6-0.6,2.2,0C238,15.2,238,16.2,237.3,16.9z"/>
		<path class="st0" d="M252,2.8c0.7,0,1.4-0.3,2-0.8c0.5-0.5,0.8-1.2,0.8-2h-1.2c0,0.4-0.2,0.8-0.5,1.1c-0.6,0.6-1.6,0.6-2.2,0
			c-0.3-0.3-0.5-0.7-0.5-1.1h-1.2c0,0.8,0.3,1.5,0.8,2C250.5,2.5,251.2,2.8,252,2.8z"/>
		<path class="st0" d="M13.8,265.7c-0.5,0.5-0.8,1.2-0.8,2s0.3,1.4,0.8,2c0.5,0.5,1.2,0.8,2,0.8c0.7,0,1.4-0.3,2-0.8
			c1.1-1.1,1.1-2.8,0-3.9C16.6,264.7,14.9,264.7,13.8,265.7z M16.9,268.8c-0.3,0.3-0.7,0.5-1.1,0.5c-0.4,0-0.8-0.2-1.1-0.5
			s-0.5-0.7-0.5-1.1s0.2-0.8,0.5-1.1c0.3-0.3,0.7-0.5,1.1-0.5c0.4,0,0.8,0.2,1.1,0.5C17.5,267.2,17.5,268.2,16.9,268.8z"/>
		<path class="st0" d="M29.5,250c-0.5,0.5-0.8,1.2-0.8,2c0,0.8,0.3,1.5,0.8,2c0.5,0.5,1.2,0.8,2,0.8c0.7,0,1.4-0.3,2-0.8
			c0.5-0.5,0.8-1.2,0.8-2c0-0.7-0.3-1.4-0.8-2C32.4,248.9,30.6,248.9,29.5,250z M32.6,253.1c-0.3,0.3-0.7,0.5-1.1,0.5
			s-0.8-0.2-1.1-0.5s-0.5-0.7-0.5-1.1c0-0.4,0.2-0.8,0.5-1.1c0.3-0.3,0.7-0.5,1.1-0.5c0.4,0,0.8,0.2,1.1,0.5
			c0.3,0.3,0.5,0.7,0.5,1.1C33.1,252.4,32.9,252.8,32.6,253.1z"/>
		<path class="st0" d="M45.3,234.3c-1.1,1.1-1.1,2.9,0,3.9c0.5,0.5,1.2,0.8,2,0.8c0.8,0,1.5-0.3,2-0.8c0.5-0.5,0.8-1.2,0.8-2
			c0-0.8-0.3-1.5-0.8-2C48.1,233.2,46.4,233.2,45.3,234.3z M48.4,237.3c-0.6,0.6-1.6,0.6-2.2,0c-0.6-0.6-0.6-1.6,0-2.2
			c0.3-0.3,0.7-0.5,1.1-0.5c0.4,0,0.8,0.2,1.1,0.5c0.3,0.3,0.5,0.7,0.5,1.1C48.8,236.6,48.7,237,48.4,237.3z"/>
		<path class="st0" d="M61,218.5c-1.1,1.1-1.1,2.9,0,3.9c0.5,0.5,1.2,0.8,2,0.8c0.8,0,1.5-0.3,2-0.8c1.1-1.1,1.1-2.9,0-3.9
			C63.9,217.4,62.1,217.4,61,218.5z M64.1,221.6c-0.6,0.6-1.6,0.6-2.2,0c-0.6-0.6-0.6-1.6,0-2.2c0.3-0.3,0.7-0.5,1.1-0.5
			c0.4,0,0.8,0.2,1.1,0.5C64.7,220,64.7,221,64.1,221.6z"/>
		<path class="st0" d="M76.8,202.8c-1.1,1.1-1.1,2.9,0,3.9c0.5,0.5,1.2,0.8,2,0.8s1.4-0.3,2-0.8c1.1-1.1,1.1-2.8,0-3.9
			C79.7,201.7,77.8,201.7,76.8,202.8z M79.9,205.8c-0.6,0.6-1.6,0.6-2.2,0c-0.6-0.6-0.6-1.6,0-2.2c0.3-0.3,0.7-0.5,1.1-0.5
			s0.8,0.2,1.1,0.5C80.5,204.2,80.5,205.2,79.9,205.8z"/>
		<path class="st0" d="M92.5,187c-0.5,0.5-0.8,1.3-0.8,2c0,0.7,0.3,1.4,0.8,2c0.5,0.5,1.2,0.8,2,0.8c0.7,0,1.4-0.3,2-0.8
			c1.1-1.1,1.1-2.8,0-3.9C95.4,186,93.6,186,92.5,187z M95.6,190.1c-0.3,0.3-0.7,0.5-1.1,0.5c-0.4,0-0.8-0.2-1.1-0.5
			c-0.6-0.6-0.6-1.6,0-2.2c0.3-0.3,0.7-0.5,1.1-0.5s0.8,0.2,1.1,0.5C96.2,188.5,96.2,189.5,95.6,190.1z"/>
		<path class="st0" d="M108.3,171.3c-0.6,0.5-0.8,1.2-0.8,2c0,0.7,0.3,1.4,0.8,2c0.5,0.5,1.2,0.8,2,0.8c0.7,0,1.4-0.3,2-0.8
			c1.1-1.1,1.1-2.8,0-3.9C111.2,170.2,109.3,170.2,108.3,171.3z M111.4,174.3c-0.3,0.3-0.7,0.5-1.1,0.5c-0.4,0-0.8-0.2-1.1-0.5
			c-0.6-0.6-0.6-1.6,0-2.2c0.3-0.3,0.7-0.5,1.1-0.5c0.4,0,0.8,0.2,1.1,0.5C112,172.7,112,173.7,111.4,174.3z"/>
		<path class="st0" d="M126,160.3c0.8,0,1.5-0.3,2-0.8c1.1-1.1,1.1-2.8,0-3.9c-1-1.1-2.9-1-3.9,0c-0.5,0.5-0.8,1.2-0.8,2
			c0,0.7,0.3,1.4,0.8,2C124.5,160,125.2,160.3,126,160.3z M124.9,156.4c0.3-0.3,0.7-0.5,1.1-0.5c0.4,0,0.8,0.2,1.1,0.5
			c0.6,0.6,0.6,1.6,0,2.2c-0.3,0.3-0.7,0.5-1.1,0.5c-0.4,0-0.8-0.2-1.1-0.5C124.3,158,124.3,157,124.9,156.4z"/>
		<path class="st0" d="M139.8,139.8c-0.5,0.5-0.8,1.2-0.8,2c0,0.7,0.3,1.4,0.8,2c0.5,0.5,1.2,0.8,2,0.8c0.8,0,1.4-0.3,2-0.8
			c1.1-1.1,1.1-2.9,0-3.9C142.7,138.7,140.8,138.7,139.8,139.8z M142.9,142.9c-0.3,0.3-0.7,0.4-1.1,0.4c-0.4,0-0.8-0.1-1.1-0.4
			c-0.3-0.3-0.5-0.7-0.5-1.1c0-0.4,0.2-0.8,0.5-1.1c0.3-0.3,0.7-0.5,1.1-0.5c0.4,0,0.8,0.2,1.1,0.5
			C143.5,141.2,143.5,142.2,142.9,142.9z"/>
		<path class="st0" d="M157.5,128.8c0.7,0,1.4-0.3,2-0.8c0.5-0.5,0.8-1.2,0.8-2c0-0.7-0.3-1.4-0.8-2c-1-1-2.9-1-3.9,0
			c-0.5,0.5-0.8,1.2-0.8,2c0,0.7,0.3,1.4,0.8,2C156,128.5,156.7,128.8,157.5,128.8z M156.4,124.9c0.3-0.3,0.7-0.5,1.1-0.5
			c0.4,0,0.8,0.2,1.1,0.5c0.3,0.3,0.5,0.7,0.5,1.1c0,0.4-0.2,0.8-0.5,1.1c-0.3,0.3-0.7,0.4-1.1,0.4c-0.4,0-0.8-0.1-1.1-0.4
			c-0.3-0.3-0.5-0.7-0.5-1.1C155.9,125.6,156.1,125.2,156.4,124.9z"/>
		<path class="st0" d="M171.3,108.3c-0.5,0.5-0.8,1.2-0.8,2c0,0.7,0.3,1.4,0.8,2c0.5,0.5,1.2,0.8,2,0.8c0.7,0,1.4-0.3,2-0.8
			c0.5-0.5,0.8-1.2,0.8-2c0-0.7-0.3-1.4-0.8-2C174.2,107.2,172.3,107.2,171.3,108.3z M174.4,111.4c-0.3,0.3-0.7,0.4-1.1,0.4
			c-0.4,0-0.8-0.1-1.1-0.4c-0.3-0.3-0.5-0.7-0.5-1.1c0-0.4,0.2-0.8,0.5-1.1c0.3-0.3,0.7-0.5,1.1-0.5c0.4,0,0.8,0.2,1.1,0.5
			c0.3,0.3,0.5,0.7,0.5,1.1C174.8,110.7,174.7,111.1,174.4,111.4z"/>
		<path class="st0" d="M187,92.5c-0.5,0.5-0.8,1.3-0.8,2c0,0.7,0.3,1.4,0.8,2c0.5,0.5,1.2,0.8,2,0.8c0.7,0,1.4-0.3,2-0.8
			c0.5-0.5,0.8-1.2,0.8-2c0-0.7-0.3-1.4-0.8-2C189.9,91.5,188.1,91.5,187,92.5z M190.1,95.6c-0.6,0.6-1.6,0.6-2.2,0
			c-0.6-0.6-0.6-1.6,0-2.2c0.6-0.6,1.6-0.6,2.2,0c0.3,0.3,0.5,0.7,0.5,1.1C190.6,94.9,190.4,95.3,190.1,95.6z"/>
		<path class="st0" d="M204.7,81.5c0.7,0,1.4-0.3,2-0.8c1.1-1.1,1.1-2.8,0-3.9c-1-1-2.9-1.1-3.9,0c-0.5,0.5-0.8,1.2-0.8,2
			c0,0.7,0.3,1.4,0.8,2C203.3,81.3,204,81.5,204.7,81.5z M203.6,77.6c0.6-0.6,1.7-0.6,2.2,0c0.6,0.6,0.6,1.6,0,2.2
			c-0.6,0.6-1.6,0.6-2.2,0C203,79.2,203,78.2,203.6,77.6z"/>
		<path class="st0" d="M222.4,61c-1-1-2.9-1-3.9,0c-0.5,0.5-0.8,1.2-0.8,2c0,0.7,0.3,1.4,0.8,2c0.5,0.5,1.3,0.8,2,0.8
			c0.7,0,1.4-0.3,2-0.8C223.5,63.9,223.5,62.1,222.4,61z M221.6,64.1c-0.6,0.6-1.6,0.6-2.2,0c-0.6-0.6-0.6-1.6,0-2.2
			c0.6-0.6,1.6-0.6,2.2,0C222.2,62.5,222.2,63.5,221.6,64.1z"/>
		<path class="st0" d="M234.3,45.3c-0.5,0.5-0.8,1.3-0.8,2c0,0.7,0.3,1.4,0.8,2s1.3,0.8,2,0.8c0.7,0,1.4-0.3,2-0.8
			c1.1-1.1,1.1-2.9,0-3.9C237.1,44.2,235.3,44.2,234.3,45.3z M237.3,48.4c-0.6,0.6-1.6,0.6-2.2,0c-0.6-0.6-0.6-1.6,0-2.2
			c0.6-0.6,1.6-0.6,2.2,0C238,46.7,238,47.7,237.3,48.4z"/>
		<path class="st0" d="M250,29.5c-0.5,0.5-0.8,1.3-0.8,2c0,0.7,0.3,1.4,0.8,2c0.5,0.5,1.3,0.8,2,0.8c0.7,0,1.4-0.3,2-0.8
			c1.1-1.1,1.1-2.9,0-3.9C252.9,28.5,251.1,28.5,250,29.5z M253.1,32.6c-0.6,0.6-1.6,0.6-2.2,0c-0.6-0.6-0.6-1.6,0-2.2
			c0.6-0.6,1.6-0.6,2.2,0C253.7,31,253.7,32,253.1,32.6z"/>
		<path class="st0" d="M267.7,18.5c0.7,0,1.4-0.3,2-0.8c1.1-1.1,1.1-2.9,0-3.9c-1-1-2.9-1-3.9,0c-0.5,0.5-0.8,1.2-0.8,2
			c0,0.8,0.3,1.5,0.8,2C266.3,18.3,267,18.5,267.7,18.5z M266.6,14.6c0.3-0.3,0.7-0.5,1.1-0.5c0.4,0,0.8,0.2,1.1,0.5
			c0.6,0.6,0.6,1.6,0,2.2c-0.6,0.6-1.6,0.6-2.2,0c-0.3-0.3-0.5-0.7-0.5-1.1C266.1,15.3,266.3,14.9,266.6,14.6z"/>
		<path class="st0" d="M282.3,1.1c-0.3-0.3-0.5-0.7-0.5-1.1h-1.2c0,0.7,0.3,1.5,0.8,2c0.5,0.5,1.2,0.8,2,0.8V1.6
			C283,1.6,282.6,1.4,282.3,1.1z"/>
		<path class="st0" d="M29.5,281.5c-0.5,0.5-0.8,1.2-0.8,2h1.2c0-0.4,0.2-0.8,0.5-1.1c0.6-0.6,1.6-0.6,2.2,0
			c0.3,0.3,0.5,0.7,0.5,1.1h1.2c0-0.7-0.3-1.4-0.8-2C32.4,280.4,30.6,280.4,29.5,281.5z"/>
		<path class="st0" d="M45.3,265.7c-0.5,0.5-0.8,1.2-0.8,2s0.3,1.4,0.8,2c0.5,0.5,1.2,0.8,2,0.8c0.7,0,1.4-0.3,2-0.8
			c0.5-0.5,0.8-1.2,0.8-2s-0.3-1.4-0.8-2C48.1,264.7,46.4,264.7,45.3,265.7z M48.4,268.8c-0.3,0.3-0.7,0.5-1.1,0.5
			c-0.4,0-0.8-0.2-1.1-0.5c-0.3-0.3-0.5-0.7-0.5-1.1s0.2-0.8,0.5-1.1c0.3-0.3,0.7-0.5,1.1-0.5c0.4,0,0.8,0.2,1.1,0.5
			c0.3,0.3,0.5,0.7,0.5,1.1S48.7,268.5,48.4,268.8z"/>
		<path class="st0" d="M61,250c-0.5,0.5-0.8,1.3-0.8,2c0,0.7,0.3,1.4,0.8,2c0.5,0.5,1.3,0.8,2,0.8c0.7,0,1.4-0.3,2-0.8
			c0.5-0.5,0.8-1.2,0.8-2c0-0.7-0.3-1.4-0.8-2C63.9,248.9,62.1,248.9,61,250z M64.1,253.1c-0.6,0.6-1.6,0.6-2.2,0
			c-0.6-0.6-0.6-1.6,0-2.2c0.6-0.6,1.6-0.6,2.2,0c0.3,0.3,0.5,0.7,0.5,1.1C64.6,252.4,64.4,252.8,64.1,253.1z"/>
		<path class="st0" d="M76.8,234.3c-1.1,1.1-1.1,2.9,0,3.9c0.5,0.5,1.2,0.8,2,0.8s1.4-0.3,2-0.8c1.1-1.1,1.1-2.8,0-3.9
			C79.6,233.2,77.9,233.2,76.8,234.3z M79.9,237.3c-0.6,0.6-1.6,0.6-2.2,0c-0.6-0.6-0.6-1.6,0-2.2c0.3-0.3,0.7-0.5,1.1-0.5
			c0.4,0,0.8,0.2,1.1,0.5C80.5,235.7,80.5,236.7,79.9,237.3z"/>
		<path class="st0" d="M92.5,218.5c-1.1,1.1-1.1,2.9,0,3.9c0.5,0.5,1.2,0.8,2,0.8s1.4-0.3,2-0.8c1.1-1.1,1.1-2.9,0-3.9
			C95.4,217.4,93.6,217.4,92.5,218.5z M95.6,221.6c-0.6,0.6-1.6,0.6-2.2,0c-0.6-0.6-0.6-1.6,0-2.2c0.3-0.3,0.7-0.5,1.1-0.5
			c0.4,0,0.8,0.2,1.1,0.5C96.2,220,96.2,221,95.6,221.6z"/>
		<path class="st0" d="M108.3,202.8c-0.6,0.5-0.8,1.3-0.8,2c0,0.7,0.3,1.4,0.8,2c0.5,0.5,1.2,0.8,2,0.8c0.7,0,1.4-0.3,2-0.8
			c1.1-1.1,1.1-2.8,0-3.9C111.1,201.7,109.4,201.7,108.3,202.8z M111.4,205.8c-0.3,0.3-0.7,0.5-1.1,0.5c-0.4,0-0.8-0.2-1.1-0.5
			c-0.6-0.6-0.6-1.6,0-2.2c0.3-0.3,0.7-0.5,1.1-0.5c0.4,0,0.8,0.2,1.1,0.5C112,204.2,112,205.2,111.4,205.8z"/>
		<path class="st0" d="M126,191.8c0.8,0,1.5-0.3,2-0.8c1.1-1.1,1.1-2.8,0-3.9c-1.1-1.1-2.9-1.1-3.9,0c-0.5,0.5-0.8,1.3-0.8,2
			c0,0.7,0.3,1.4,0.8,2C124.5,191.5,125.2,191.8,126,191.8z M124.9,187.9c0.3-0.3,0.7-0.5,1.1-0.5c0.4,0,0.8,0.2,1.1,0.5
			c0.6,0.6,0.6,1.6,0,2.2c-0.3,0.3-0.7,0.5-1.1,0.5c-0.4,0-0.8-0.2-1.1-0.5C124.3,189.5,124.3,188.5,124.9,187.9z"/>
		<path class="st0" d="M139.8,171.3c-0.5,0.5-0.8,1.3-0.8,2c0,0.7,0.3,1.4,0.8,2c0.5,0.5,1.2,0.8,2,0.8c0.8,0,1.4-0.3,2-0.8
			c1.1-1.1,1.1-2.8,0-3.9C142.6,170.2,140.9,170.2,139.8,171.3z M142.9,174.3c-0.3,0.3-0.7,0.5-1.1,0.5c-0.4,0-0.8-0.2-1.1-0.5
			c-0.6-0.6-0.6-1.6,0-2.2c0.3-0.3,0.7-0.5,1.1-0.5c0.4,0,0.8,0.2,1.1,0.5C143.5,172.7,143.5,173.7,142.9,174.3z"/>
		<path class="st0" d="M157.5,160.3c0.7,0,1.4-0.3,2-0.8c1.1-1.1,1.1-2.8,0-3.9c-1.1-1.1-2.9-1.1-3.9,0c-0.5,0.5-0.8,1.2-0.8,2
			c0,0.8,0.3,1.5,0.8,2C156,160,156.7,160.3,157.5,160.3z M156.4,156.4c0.3-0.3,0.7-0.5,1.1-0.5c0.4,0,0.8,0.2,1.1,0.5
			c0.6,0.6,0.6,1.6,0,2.2c-0.3,0.3-0.7,0.5-1.1,0.5c-0.4,0-0.8-0.2-1.1-0.5c-0.3-0.3-0.5-0.7-0.5-1.1
			C155.9,157.1,156.1,156.7,156.4,156.4z"/>
		<path class="st0" d="M171.3,139.8c-0.5,0.5-0.8,1.2-0.8,2c0,0.7,0.3,1.4,0.8,2c0.5,0.5,1.2,0.8,2,0.8c0.7,0,1.4-0.3,2-0.8
			c0.5-0.5,0.8-1.2,0.8-2c0-0.8-0.3-1.5-0.8-2C174.1,138.7,172.4,138.7,171.3,139.8z M174.4,142.9c-0.3,0.3-0.7,0.4-1.1,0.4
			c-0.4,0-0.8-0.1-1.1-0.4c-0.3-0.3-0.5-0.7-0.5-1.1c0-0.4,0.2-0.8,0.5-1.1c0.3-0.3,0.7-0.5,1.1-0.5c0.4,0,0.8,0.2,1.1,0.5
			c0.3,0.3,0.5,0.7,0.5,1.1C174.8,142.2,174.7,142.6,174.4,142.9z"/>
		<path class="st0" d="M187,124c-1.1,1.1-1.1,2.8,0,3.9c0.5,0.5,1.2,0.8,2,0.8c0.7,0,1.4-0.3,2-0.8c0.5-0.5,0.8-1.2,0.8-2
			c0-0.7-0.3-1.4-0.8-2C189.9,123,188.1,123,187,124z M190.1,127.1c-0.6,0.6-1.6,0.6-2.2,0c-0.6-0.6-0.6-1.6,0-2.2
			c0.3-0.3,0.7-0.5,1.1-0.5c0.4,0,0.8,0.2,1.1,0.5c0.3,0.3,0.5,0.7,0.5,1.1C190.6,126.4,190.4,126.8,190.1,127.1z"/>
		<path class="st0" d="M202.8,108.3c-1.1,1.1-1.1,2.8,0,3.9c0.5,0.5,1.2,0.8,2,0.8c0.8,0,1.5-0.3,2-0.8c1.1-1.1,1.1-2.8,0-3.9
			C205.6,107.2,203.8,107.2,202.8,108.3z M205.8,111.4c-0.6,0.6-1.6,0.6-2.2,0c-0.6-0.6-0.6-1.6,0-2.2c0.3-0.3,0.7-0.5,1.1-0.5
			c0.4,0,0.8,0.2,1.1,0.5C206.5,109.7,206.5,110.7,205.8,111.4z"/>
		<path class="st0" d="M222.4,92.5c-1-1-2.9-1-3.9,0c-1.1,1.1-1.1,2.9,0,3.9c0.5,0.5,1.2,0.8,2,0.8c0.8,0,1.5-0.3,2-0.8
			C223.5,95.4,223.5,93.6,222.4,92.5z M221.6,95.6c-0.6,0.6-1.6,0.6-2.2,0c-0.6-0.6-0.6-1.6,0-2.2c0.3-0.3,0.7-0.5,1.1-0.5
			c0.4,0,0.8,0.2,1.1,0.5C222.2,94,222.2,95,221.6,95.6z"/>
		<path class="st0" d="M234.3,76.8c-0.5,0.5-0.8,1.2-0.8,2c0,0.7,0.3,1.4,0.8,2c0.5,0.5,1.2,0.8,2,0.8c0.7,0,1.4-0.3,2-0.8
			c1.1-1.1,1.1-2.8,0-3.9C237.1,75.7,235.3,75.7,234.3,76.8z M237.3,79.9c-0.3,0.3-0.7,0.4-1.1,0.4c-0.4,0-0.8-0.1-1.1-0.4
			c-0.6-0.6-0.6-1.6,0-2.2c0.3-0.3,0.7-0.5,1.1-0.5c0.4,0,0.8,0.2,1.1,0.5C238,78.2,238,79.2,237.3,79.9z"/>
		<path class="st0" d="M250,61c-0.5,0.5-0.8,1.2-0.8,2c0,0.7,0.3,1.4,0.8,2c0.5,0.5,1.2,0.8,2,0.8c0.7,0,1.4-0.3,2-0.8
			c1.1-1.1,1.1-2.8,0-3.9C252.9,60,251.1,60,250,61z M253.1,64.1c-0.3,0.3-0.7,0.4-1.1,0.4c-0.4,0-0.8-0.1-1.1-0.4
			c-0.6-0.6-0.6-1.6,0-2.2c0.3-0.3,0.7-0.5,1.1-0.5c0.4,0,0.8,0.2,1.1,0.5C253.7,62.5,253.7,63.5,253.1,64.1z"/>
		<path class="st0" d="M267.7,50c0.7,0,1.4-0.3,2-0.8c1.1-1.1,1.1-2.9,0-3.9c-1-1-2.9-1-3.9,0c-0.5,0.5-0.8,1.3-0.8,2
			c0,0.7,0.3,1.4,0.8,2C266.3,49.7,267,50,267.7,50z M266.6,46.1c0.3-0.3,0.7-0.5,1.1-0.5c0.4,0,0.8,0.2,1.1,0.5
			c0.6,0.6,0.6,1.6,0,2.2c-0.3,0.3-0.7,0.5-1.1,0.5c-0.4,0-0.8-0.1-1.1-0.5C266,47.7,266,46.7,266.6,46.1z"/>
		<path class="st0" d="M281.5,33.5c0.5,0.5,1.2,0.8,2,0.8v-1.2c-0.4,0-0.8-0.2-1.1-0.4c-0.6-0.6-0.6-1.6,0-2.3
			c0.3-0.3,0.7-0.5,1.1-0.5v-1.2c-0.7,0-1.4,0.3-2,0.8C280.4,30.6,280.4,32.4,281.5,33.5z"/>
		<path class="st0" d="M61,281.5c-0.5,0.5-0.8,1.2-0.8,2h1.2c0-0.4,0.2-0.8,0.5-1.1c0.6-0.6,1.6-0.6,2.2,0c0.3,0.3,0.5,0.7,0.5,1.1
			h1.2c0-0.7-0.3-1.4-0.8-2C63.9,280.4,62.1,280.4,61,281.5z"/>
		<path class="st0" d="M76.8,265.7c-0.5,0.6-0.8,1.3-0.8,2s0.3,1.4,0.8,2c0.5,0.5,1.3,0.8,2,0.8c0.7,0,1.4-0.3,2-0.8
			c0.5-0.5,0.8-1.2,0.8-2s-0.3-1.4-0.8-2C79.6,264.7,77.9,264.7,76.8,265.7z M79.9,268.8c-0.6,0.6-1.6,0.6-2.2,0s-0.6-1.6,0-2.2
			s1.6-0.6,2.2,0c0.3,0.3,0.5,0.7,0.5,1.1S80.2,268.5,79.9,268.8z"/>
		<path class="st0" d="M92.5,250c-0.5,0.5-0.8,1.3-0.8,2c0,0.7,0.3,1.4,0.8,2c0.5,0.5,1.3,0.8,2,0.8c0.7,0,1.4-0.3,2-0.8
			c1.1-1.1,1.1-2.8,0-3.9C95.4,248.9,93.6,248.9,92.5,250z M95.6,253.1c-0.6,0.6-1.6,0.6-2.2,0c-0.6-0.6-0.6-1.6,0-2.2
			c0.6-0.6,1.6-0.6,2.2,0C96.2,251.5,96.2,252.5,95.6,253.1z"/>
		<path class="st0" d="M108.3,234.3c-1.1,1.1-1.1,2.9,0,3.9c0.5,0.6,1.2,0.8,2,0.8c0.7,0,1.4-0.3,2-0.8c1.1-1.1,1.1-2.8,0-3.9
			C111.1,233.2,109.4,233.2,108.3,234.3z M111.4,237.3c-0.6,0.6-1.6,0.6-2.2,0c-0.6-0.6-0.6-1.6,0-2.2c0.3-0.3,0.7-0.5,1.1-0.5
			c0.4,0,0.8,0.2,1.1,0.5C112,235.7,112,236.7,111.4,237.3z"/>
		<path class="st0" d="M124,218.5c-1.1,1.1-1.1,2.9,0,3.9c0.5,0.5,1.2,0.8,2,0.8c0.7,0,1.4-0.3,2-0.8c1.1-1.1,1.1-2.9,0-3.9
			C126.9,217.4,125.1,217.4,124,218.5z M127.1,221.6c-0.6,0.6-1.6,0.6-2.2,0c-0.6-0.6-0.6-1.6,0-2.2c0.3-0.3,0.7-0.5,1.1-0.5
			c0.4,0,0.8,0.2,1.1,0.5C127.7,220,127.7,221,127.1,221.6z"/>
		<path class="st0" d="M139.8,202.8c-1.1,1.1-1.1,2.9,0,3.9c0.5,0.5,1.3,0.8,2,0.8c0.7,0,1.4-0.3,2-0.8c1.1-1.1,1.1-2.8,0-3.9
			C142.6,201.7,140.9,201.7,139.8,202.8z M142.9,205.8c-0.6,0.6-1.6,0.6-2.2,0c-0.6-0.6-0.6-1.6,0-2.2c0.3-0.3,0.7-0.5,1.1-0.5
			c0.4,0,0.8,0.2,1.1,0.5C143.5,204.2,143.5,205.2,142.9,205.8z"/>
		<path class="st0" d="M157.5,191.8c0.7,0,1.4-0.3,2-0.8c1.1-1.1,1.1-2.8,0-3.9c-1.1-1.1-2.9-1.1-3.9,0c-1.1,1.1-1.1,2.9,0,3.9
			C156.1,191.5,156.8,191.8,157.5,191.8z M156.4,187.9c0.3-0.3,0.7-0.5,1.1-0.5c0.4,0,0.8,0.2,1.1,0.5c0.6,0.6,0.6,1.6,0,2.2
			s-1.6,0.6-2.2,0S155.7,188.5,156.4,187.9z"/>
		<path class="st0" d="M171.3,171.3c-0.5,0.5-0.8,1.2-0.8,2c0,0.8,0.3,1.5,0.8,2c0.5,0.5,1.3,0.8,2,0.8c0.7,0,1.4-0.3,2-0.8
			c1.1-1.1,1.1-2.8,0-3.9C174.1,170.2,172.4,170.2,171.3,171.3z M174.4,174.3c-0.3,0.3-0.7,0.5-1.1,0.5c-0.4,0-0.8-0.2-1.1-0.5
			c-0.3-0.3-0.5-0.7-0.5-1.1c0-0.4,0.2-0.8,0.5-1.1c0.3-0.3,0.7-0.5,1.1-0.5c0.4,0,0.8,0.2,1.1,0.5C175,172.7,175,173.7,174.4,174.3
			z"/>
		<path class="st0" d="M187,155.5c-0.5,0.5-0.8,1.2-0.8,2c0,0.8,0.3,1.5,0.8,2c0.5,0.5,1.2,0.8,2,0.8c0.7,0,1.4-0.3,2-0.8
			c0.5-0.5,0.8-1.2,0.8-2c0-0.7-0.3-1.4-0.8-2C189.9,154.4,188.1,154.4,187,155.5z M190.1,158.6c-0.3,0.3-0.7,0.5-1.1,0.5
			c-0.4,0-0.8-0.2-1.1-0.5c-0.3-0.3-0.5-0.7-0.5-1.1c0-0.4,0.2-0.8,0.5-1.1c0.3-0.3,0.7-0.5,1.1-0.5c0.4,0,0.8,0.2,1.1,0.5
			c0.3,0.3,0.5,0.7,0.5,1.1C190.6,157.9,190.4,158.3,190.1,158.6z"/>
		<path class="st0" d="M202.8,139.8c-1.1,1.1-1.1,2.8,0,3.9c0.5,0.5,1.2,0.8,2,0.8c0.8,0,1.5-0.3,2-0.8c0.5-0.5,0.8-1.2,0.8-2
			c0-0.8-0.3-1.5-0.8-2C205.6,138.7,203.8,138.7,202.8,139.8z M205.8,142.9c-0.6,0.6-1.6,0.6-2.2,0c-0.6-0.6-0.6-1.6,0-2.2
			c0.3-0.3,0.7-0.5,1.1-0.5c0.4,0,0.8,0.2,1.1,0.5c0.3,0.3,0.5,0.7,0.5,1.1C206.3,142.2,206.1,142.6,205.8,142.9z"/>
		<path class="st0" d="M218.5,124c-1.1,1.1-1.1,2.8,0,3.9c0.5,0.5,1.2,0.8,2,0.8c0.8,0,1.5-0.3,2-0.8c1.1-1.1,1.1-2.8,0-3.9
			C221.4,122.9,219.6,122.9,218.5,124z M221.6,127.1c-0.6,0.6-1.6,0.6-2.2,0c-0.6-0.6-0.6-1.6,0-2.2c0.3-0.3,0.7-0.5,1.1-0.5
			c0.4,0,0.8,0.1,1.1,0.5C222.2,125.5,222.2,126.5,221.6,127.1z"/>
		<path class="st0" d="M234.3,108.3c-1.1,1.1-1.1,2.8,0,3.9c0.5,0.5,1.2,0.8,2,0.8c0.7,0,1.4-0.3,2-0.8c1.1-1.1,1.1-2.8,0-3.9
			C237.1,107.2,235.3,107.2,234.3,108.3z M237.3,111.4c-0.6,0.6-1.6,0.6-2.2,0c-0.6-0.6-0.6-1.6,0-2.2c0.3-0.3,0.7-0.5,1.1-0.5
			c0.4,0,0.8,0.1,1.1,0.5C238,109.7,238,110.7,237.3,111.4z"/>
		<path class="st0" d="M250,92.5c-0.5,0.5-0.8,1.3-0.8,2c0,0.7,0.3,1.4,0.8,2c0.5,0.5,1.2,0.8,2,0.8c0.7,0,1.4-0.3,2-0.8
			c1.1-1.1,1.1-2.8,0-3.9C252.9,91.4,251.1,91.4,250,92.5z M253.1,95.6c-0.3,0.3-0.7,0.4-1.1,0.4c-0.4,0-0.8-0.1-1.1-0.4
			c-0.6-0.6-0.6-1.6,0-2.2c0.3-0.3,0.7-0.5,1.1-0.5c0.4,0,0.8,0.1,1.1,0.5C253.7,94,253.7,95,253.1,95.6z"/>
		<path class="st0" d="M267.7,81.5c0.7,0,1.4-0.3,2-0.8c1.1-1.1,1.1-2.8,0-3.9c-1.1-1.1-2.8-1.1-3.9,0c-0.5,0.5-0.8,1.2-0.8,2
			c0,0.7,0.3,1.4,0.8,2C266.3,81.2,267,81.5,267.7,81.5z M266.6,77.6c0.3-0.3,0.7-0.5,1.1-0.5c0.4,0,0.8,0.2,1.1,0.5
			c0.6,0.6,0.6,1.6,0,2.2c-0.3,0.3-0.7,0.4-1.1,0.4c-0.4,0-0.8-0.1-1.1-0.4C266,79.2,266,78.2,266.6,77.6z"/>
		<path class="st0" d="M280.7,63c0,0.7,0.3,1.4,0.8,2c0.5,0.5,1.2,0.8,2,0.8v-1.2c-0.4,0-0.8-0.2-1.1-0.5c-0.3-0.3-0.5-0.7-0.5-1.1
			s0.2-0.8,0.5-1.1c0.4-0.4,0.8-0.5,1.1-0.5v-1.2c-0.8,0-1.5,0.3-2,0.8C281,61.6,280.7,62.3,280.7,63z"/>
		<path class="st0" d="M92.5,281.5c-0.5,0.5-0.8,1.2-0.8,2h1.2c0-0.4,0.2-0.8,0.5-1.1c0.6-0.6,1.6-0.6,2.2,0
			c0.3,0.3,0.5,0.7,0.5,1.1h1.2c0-0.7-0.3-1.4-0.8-2C95.4,280.4,93.6,280.4,92.5,281.5z"/>
		<path class="st0" d="M108.3,265.7c-0.6,0.6-0.8,1.3-0.8,2s0.3,1.4,0.8,2c0.5,0.5,1.2,0.8,2,0.8c0.7,0,1.4-0.3,2-0.8
			c1.1-1.1,1.1-2.8,0-3.9C111.1,264.7,109.4,264.7,108.3,265.7z M111.4,268.8c-0.6,0.6-1.6,0.6-2.2,0c-0.6-0.6-0.6-1.6,0-2.2
			c0.6-0.6,1.6-0.6,2.2,0C112,267.2,112,268.2,111.4,268.8z"/>
		<path class="st0" d="M126,254.8c0.7,0,1.4-0.3,2-0.8c1.1-1.1,1.1-2.8,0-3.9c-1.1-1.1-2.9-1.1-3.9,0c-1.1,1.1-1.1,2.9,0,3.9
			C124.6,254.5,125.3,254.8,126,254.8z M124.9,250.8c0.3-0.3,0.7-0.5,1.1-0.5c0.4,0,0.8,0.2,1.1,0.5c0.6,0.6,0.6,1.6,0,2.2
			c-0.6,0.6-1.6,0.6-2.2,0C124.3,252.5,124.3,251.5,124.9,250.8z"/>
		<path class="st0" d="M139.8,234.3c-1.1,1.1-1.1,2.9,0,3.9c0.5,0.6,1.3,0.8,2,0.8c0.7,0,1.4-0.3,2-0.8c1.1-1.1,1.1-2.8,0-3.9
			C142.6,233.2,140.9,233.2,139.8,234.3z M142.9,237.3c-0.6,0.6-1.6,0.6-2.2,0c-0.6-0.6-0.6-1.6,0-2.2c0.3-0.3,0.7-0.5,1.1-0.5
			c0.4,0,0.8,0.2,1.1,0.5C143.5,235.7,143.5,236.7,142.9,237.3z"/>
		<path class="st0" d="M157.5,223.3c0.7,0,1.4-0.3,2-0.8c1.1-1.1,1.1-2.9,0-3.9c-1.1-1.1-2.9-1.1-3.9,0c-1.1,1.1-1.1,2.9,0,3.9
			C156.1,223,156.8,223.3,157.5,223.3z M156.4,219.4c0.3-0.3,0.7-0.5,1.1-0.5c0.4,0,0.8,0.2,1.1,0.5c0.6,0.6,0.6,1.6,0,2.2
			c-0.6,0.6-1.6,0.6-2.2,0C155.7,221,155.7,220,156.4,219.4z"/>
		<path class="st0" d="M171.3,202.8c-1.1,1.1-1.1,2.9,0,3.9c0.5,0.5,1.3,0.8,2,0.8c0.7,0,1.4-0.3,2-0.8c1.1-1.1,1.1-2.8,0-3.9
			C174.1,201.7,172.4,201.7,171.3,202.8z M174.4,205.8c-0.6,0.6-1.6,0.6-2.2,0s-0.6-1.6,0-2.2c0.3-0.3,0.7-0.5,1.1-0.5
			c0.4,0,0.8,0.2,1.1,0.5C175,204.2,175,205.2,174.4,205.8z"/>
		<path class="st0" d="M189,191.8c0.7,0,1.4-0.3,2-0.8c1.1-1.1,1.1-2.8,0-3.9c-1.1-1.1-2.8-1.1-3.9,0c-0.5,0.5-0.8,1.2-0.8,2
			s0.3,1.4,0.8,2C187.6,191.5,188.3,191.8,189,191.8z M187.9,187.9c0.3-0.3,0.7-0.5,1.1-0.5c0.4,0,0.8,0.2,1.1,0.5
			c0.6,0.6,0.6,1.6,0,2.2c-0.3,0.3-0.7,0.5-1.1,0.5c-0.4,0-0.8-0.1-1.1-0.5c-0.3-0.3-0.5-0.7-0.5-1.1
			C187.4,188.6,187.6,188.2,187.9,187.9z"/>
		<path class="st0" d="M202.8,171.3c-0.5,0.5-0.8,1.2-0.8,2c0,0.8,0.3,1.5,0.8,2c0.5,0.5,1.2,0.8,2,0.8c0.7,0,1.4-0.3,2-0.8
			c0.5-0.5,0.8-1.2,0.8-2c0-0.7-0.3-1.4-0.8-2C205.6,170.2,203.8,170.2,202.8,171.3z M205.8,174.3c-0.3,0.3-0.7,0.5-1.1,0.5
			c-0.4,0-0.8-0.2-1.1-0.5c-0.3-0.3-0.5-0.7-0.5-1.1c0-0.4,0.2-0.8,0.5-1.1c0.3-0.3,0.7-0.5,1.1-0.5c0.4,0,0.8,0.2,1.1,0.5
			c0.3,0.3,0.5,0.7,0.5,1.1C206.3,173.7,206.1,174,205.8,174.3z"/>
		<path class="st0" d="M218.5,155.5c-0.5,0.5-0.8,1.2-0.8,2c0,0.7,0.3,1.4,0.8,2c0.5,0.5,1.3,0.8,2,0.8c0.7,0,1.4-0.3,2-0.8
			c0.5-0.5,0.8-1.2,0.8-2c0-0.7-0.3-1.4-0.8-2C221.4,154.4,219.6,154.4,218.5,155.5z M221.6,158.6c-0.6,0.6-1.6,0.6-2.2,0
			c-0.6-0.6-0.6-1.6,0-2.2c0.6-0.6,1.6-0.6,2.2,0c0.3,0.3,0.5,0.7,0.5,1.1C222.1,157.9,221.9,158.3,221.6,158.6z"/>
		<path class="st0" d="M234.3,139.8c-0.5,0.5-0.8,1.2-0.8,2c0,0.7,0.3,1.4,0.8,2c0.5,0.5,1.3,0.8,2,0.8c0.7,0,1.4-0.3,2-0.8
			c1.1-1.1,1.1-2.9,0-3.9C237.1,138.7,235.3,138.7,234.3,139.8z M237.3,142.9c-0.6,0.6-1.6,0.6-2.2,0c-0.6-0.6-0.6-1.6,0-2.2
			c0.6-0.6,1.6-0.6,2.2,0C238,141.2,238,142.2,237.3,142.9z"/>
		<path class="st0" d="M250,124c-1.1,1.1-1.1,2.8,0,3.9c0.5,0.5,1.3,0.8,2,0.8c0.7,0,1.4-0.3,2-0.8c1.1-1.1,1.1-2.8,0-3.9
			C252.9,122.9,251.1,122.9,250,124z M253.1,127.1c-0.6,0.6-1.6,0.6-2.2,0s-0.6-1.6,0-2.2c0.3-0.3,0.7-0.5,1.1-0.5
			c0.4,0,0.8,0.1,1.1,0.5C253.7,125.5,253.7,126.5,253.1,127.1z"/>
		<path class="st0" d="M269.7,108.3c-1.1-1.1-2.8-1.1-3.9,0c-1.1,1.1-1.1,2.8,0,3.9c0.5,0.5,1.2,0.8,2,0.8c0.7,0,1.4-0.3,2-0.8
			C270.8,111.1,270.8,109.4,269.7,108.3z M268.8,111.4c-0.6,0.6-1.6,0.6-2.2,0c-0.6-0.6-0.6-1.6,0-2.2c0.3-0.3,0.7-0.5,1.1-0.5
			c0.4,0,0.8,0.1,1.1,0.5C269.5,109.7,269.5,110.7,268.8,111.4z"/>
		<path class="st0" d="M280.7,94.5c0,0.7,0.3,1.4,0.8,2c0.5,0.5,1.2,0.8,2,0.8v-1.2c-0.3,0-0.7-0.1-1.1-0.5
			c-0.3-0.3-0.5-0.7-0.5-1.1s0.2-0.8,0.5-1.1c0.4-0.4,0.8-0.5,1.1-0.5v-1.2c-0.7,0-1.4,0.3-2,0.8C281,93,280.7,93.7,280.7,94.5z"/>
		<path class="st0" d="M124,281.5c-0.5,0.5-0.8,1.2-0.8,2h1.2c0-0.4,0.2-0.8,0.5-1.1c0.6-0.6,1.6-0.6,2.2,0c0.3,0.3,0.5,0.7,0.5,1.1
			h1.2c0-0.7-0.3-1.4-0.8-2C126.9,280.4,125.1,280.4,124,281.5z"/>
		<path class="st0" d="M139.8,265.7c-1.1,1.1-1.1,2.9,0,3.9c0.5,0.5,1.3,0.8,2,0.8c0.7,0,1.4-0.3,2-0.8c1.1-1.1,1.1-2.8,0-3.9
			C142.6,264.7,140.9,264.7,139.8,265.7z M142.9,268.8c-0.6,0.6-1.6,0.6-2.2,0c-0.6-0.6-0.6-1.6,0-2.2c0.3-0.3,0.7-0.5,1.1-0.5
			c0.4,0,0.8,0.2,1.1,0.5C143.5,267.2,143.5,268.2,142.9,268.8z"/>
		<path class="st0" d="M157.5,254.8c0.7,0,1.4-0.3,2-0.8c1.1-1.1,1.1-2.8,0-3.9c-1.1-1.1-2.9-1.1-3.9,0c-1.1,1.1-1.1,2.9,0,3.9
			C156.1,254.5,156.8,254.8,157.5,254.8z M156.4,250.8c0.3-0.3,0.7-0.5,1.1-0.5c0.4,0,0.8,0.2,1.1,0.5c0.6,0.6,0.6,1.6,0,2.2
			c-0.6,0.6-1.6,0.6-2.2,0C155.7,252.5,155.7,251.5,156.4,250.8z"/>
		<path class="st0" d="M171.3,234.3c-1.1,1.1-1.1,2.9,0,3.9c0.5,0.6,1.3,0.8,2,0.8c0.7,0,1.4-0.3,2-0.8c1.1-1.1,1.1-2.8,0-3.9
			C174.1,233.2,172.4,233.2,171.3,234.3z M174.4,237.3c-0.6,0.6-1.6,0.6-2.2,0c-0.6-0.6-0.6-1.6,0-2.2c0.3-0.3,0.7-0.5,1.1-0.5
			c0.4,0,0.8,0.2,1.1,0.5C175,235.7,175,236.7,174.4,237.3z"/>
		<path class="st0" d="M189,223.3c0.7,0,1.4-0.3,2-0.8c1.1-1.1,1.1-2.9,0-3.9c-1.1-1.1-2.8-1.1-3.9,0c-0.5,0.5-0.8,1.2-0.8,2
			c0,0.7,0.3,1.4,0.8,2C187.6,223,188.3,223.3,189,223.3z M187.9,219.4c0.3-0.3,0.7-0.5,1.1-0.5c0.4,0,0.8,0.2,1.1,0.5
			c0.6,0.6,0.6,1.6,0,2.2c-0.6,0.6-1.6,0.6-2.2,0c-0.3-0.3-0.5-0.7-0.5-1.1C187.4,220,187.6,219.7,187.9,219.4z"/>
		<path class="st0" d="M202.8,202.8c-0.5,0.5-0.8,1.2-0.8,2s0.3,1.4,0.8,2c0.5,0.5,1.2,0.8,2,0.8c0.7,0,1.4-0.3,2-0.8
			c1.1-1.1,1.1-2.8,0-3.9C205.6,201.7,203.8,201.7,202.8,202.8z M205.8,205.8c-0.3,0.3-0.7,0.5-1.1,0.5c-0.4,0-0.8-0.2-1.1-0.5
			c-0.3-0.3-0.5-0.7-0.5-1.1c0-0.4,0.2-0.8,0.5-1.1c0.3-0.3,0.7-0.5,1.1-0.5c0.4,0,0.8,0.2,1.1,0.5
			C206.5,204.2,206.5,205.2,205.8,205.8z"/>
		<path class="st0" d="M218.5,187c-0.5,0.5-0.8,1.2-0.8,2s0.3,1.4,0.8,2c0.5,0.5,1.3,0.8,2,0.8c0.7,0,1.4-0.3,2-0.8
			c0.5-0.5,0.8-1.2,0.8-2s-0.3-1.4-0.8-2C221.4,185.9,219.6,185.9,218.5,187z M221.6,190.1c-0.3,0.3-0.7,0.5-1.1,0.5
			c-0.4,0-0.8-0.1-1.1-0.5c-0.3-0.3-0.5-0.7-0.5-1.1c0-0.4,0.2-0.8,0.5-1.1c0.3-0.3,0.7-0.5,1.1-0.5c0.4,0,0.8,0.2,1.1,0.5
			c0.3,0.3,0.5,0.7,0.5,1.1C222.1,189.4,221.9,189.8,221.6,190.1z"/>
		<path class="st0" d="M234.3,171.3c-0.5,0.5-0.8,1.3-0.8,2c0,0.7,0.3,1.4,0.8,2c0.5,0.5,1.3,0.8,2,0.8c0.7,0,1.4-0.3,2-0.8
			c0.5-0.5,0.8-1.2,0.8-2c0-0.7-0.3-1.4-0.8-2C237.1,170.2,235.3,170.2,234.3,171.3z M237.3,174.3c-0.6,0.6-1.6,0.6-2.2,0
			c-0.6-0.6-0.6-1.6,0-2.2c0.6-0.6,1.6-0.6,2.2,0c0.3,0.3,0.5,0.7,0.5,1.1C237.8,173.7,237.6,174,237.3,174.3z"/>
		<path class="st0" d="M250,155.5c-0.5,0.5-0.8,1.2-0.8,2c0,0.7,0.3,1.4,0.8,2c0.5,0.5,1.3,0.8,2,0.8c0.7,0,1.4-0.3,2-0.8
			c1.1-1.1,1.1-2.8,0-3.9C252.9,154.4,251.1,154.4,250,155.5z M253.1,158.6c-0.6,0.6-1.6,0.6-2.2,0c-0.6-0.6-0.6-1.6,0-2.2
			c0.6-0.6,1.6-0.6,2.2,0C253.7,157,253.7,158,253.1,158.6z"/>
		<path class="st0" d="M265.8,139.8c-1.1,1.1-1.1,2.8,0,3.9c0.5,0.5,1.2,0.8,2,0.8c0.7,0,1.4-0.3,2-0.8c1.1-1.1,1.1-2.9,0-3.9
			C268.6,138.7,266.8,138.7,265.8,139.8z M268.8,142.9c-0.6,0.6-1.6,0.6-2.2,0c-0.6-0.6-0.6-1.6,0-2.2c0.3-0.3,0.7-0.5,1.1-0.5
			c0.4,0,0.8,0.2,1.1,0.5C269.5,141.2,269.5,142.2,268.8,142.9z"/>
		<path class="st0" d="M281.5,128c0.5,0.5,1.2,0.8,2,0.8v-1.2c-0.4,0-0.8-0.2-1.1-0.5c-0.6-0.6-0.6-1.6,0-2.2
			c0.4-0.4,0.8-0.5,1.1-0.5v-1.2c-0.7,0-1.4,0.3-2,0.8C280.4,125.1,280.4,126.9,281.5,128z"/>
		<path class="st0" d="M155.5,281.5c-0.5,0.5-0.8,1.2-0.8,2h1.2c0-0.4,0.2-0.8,0.4-1.1c0.6-0.6,1.6-0.6,2.2,0
			c0.3,0.3,0.5,0.7,0.5,1.1h1.2c0-0.7-0.3-1.4-0.8-2C158.4,280.4,156.6,280.4,155.5,281.5z"/>
		<path class="st0" d="M171.3,265.7c-1.1,1.1-1.1,2.9,0,3.9c0.5,0.5,1.3,0.8,2,0.8c0.7,0,1.4-0.3,2-0.8c1.1-1.1,1.1-2.8,0-3.9
			C174.1,264.7,172.4,264.7,171.3,265.7z M174.4,268.8c-0.6,0.6-1.6,0.6-2.2,0s-0.6-1.6,0-2.2c0.3-0.3,0.7-0.5,1.1-0.5
			c0.4,0,0.8,0.2,1.1,0.5C175,267.2,175,268.2,174.4,268.8z"/>
		<path class="st0" d="M187,250c-1.1,1.1-1.1,2.9,0,3.9c0.5,0.5,1.2,0.8,2,0.8c0.7,0,1.4-0.3,2-0.8c1.1-1.1,1.1-2.8,0-3.9
			C189.9,248.9,188.1,248.9,187,250z M190.1,253.1c-0.6,0.6-1.6,0.6-2.2,0c-0.6-0.6-0.6-1.6,0-2.2c0.3-0.3,0.7-0.5,1.1-0.5
			c0.4,0,0.8,0.2,1.1,0.5C190.7,251.5,190.7,252.5,190.1,253.1z"/>
		<path class="st0" d="M202.8,234.3c-0.5,0.5-0.8,1.2-0.8,2c0,0.7,0.3,1.4,0.8,2c0.5,0.6,1.2,0.8,2,0.8c0.7,0,1.4-0.3,2-0.8
			c1.1-1.1,1.1-2.8,0-3.9C205.6,233.2,203.8,233.2,202.8,234.3z M205.8,237.3c-0.3,0.3-0.7,0.5-1.1,0.5c-0.4,0-0.8-0.2-1.1-0.5
			c-0.3-0.3-0.5-0.7-0.5-1.1c0-0.4,0.2-0.8,0.5-1.1c0.3-0.3,0.7-0.5,1.1-0.5c0.4,0,0.8,0.2,1.1,0.5
			C206.5,235.7,206.5,236.7,205.8,237.3z"/>
		<path class="st0" d="M218.5,218.5c-0.5,0.5-0.8,1.2-0.8,2c0,0.7,0.3,1.4,0.8,2c0.5,0.5,1.3,0.8,2,0.8c0.7,0,1.4-0.3,2-0.8
			c0.5-0.5,0.8-1.2,0.8-2c0-0.8-0.3-1.5-0.8-2C221.4,217.4,219.6,217.4,218.5,218.5z M221.6,221.6c-0.3,0.3-0.7,0.5-1.1,0.5
			c-0.4,0-0.8-0.2-1.1-0.5c-0.3-0.3-0.5-0.7-0.5-1.1c0-0.4,0.2-0.8,0.5-1.1c0.3-0.3,0.7-0.5,1.1-0.5c0.4,0,0.8,0.2,1.1,0.5
			c0.3,0.3,0.5,0.7,0.5,1.1C222.1,220.9,221.9,221.3,221.6,221.6z"/>
		<path class="st0" d="M234.3,202.8c-0.5,0.5-0.8,1.2-0.8,2s0.3,1.4,0.8,2c0.5,0.5,1.3,0.8,2,0.8c0.7,0,1.4-0.3,2-0.8
			c0.5-0.5,0.8-1.2,0.8-2s-0.3-1.4-0.8-2C237.1,201.7,235.3,201.7,234.3,202.8z M237.3,205.8c-0.3,0.3-0.7,0.5-1.1,0.5
			c-0.4,0-0.8-0.2-1.1-0.5c-0.3-0.3-0.5-0.7-0.5-1.1c0-0.4,0.2-0.8,0.5-1.1c0.3-0.3,0.7-0.5,1.1-0.5c0.4,0,0.8,0.2,1.1,0.5
			c0.3,0.3,0.5,0.7,0.5,1.1C237.8,205.1,237.6,205.5,237.3,205.8z"/>
		<path class="st0" d="M250,187c-0.5,0.5-0.8,1.3-0.8,2c0,0.7,0.3,1.4,0.8,2c0.5,0.5,1.3,0.8,2,0.8c0.7,0,1.4-0.3,2-0.8
			c0.5-0.5,0.8-1.2,0.8-2s-0.3-1.4-0.8-2C252.9,185.9,251.1,185.9,250,187z M253.1,190.1c-0.6,0.6-1.6,0.6-2.2,0s-0.6-1.6,0-2.2
			s1.6-0.6,2.2,0c0.3,0.3,0.5,0.7,0.5,1.1C253.6,189.4,253.4,189.8,253.1,190.1z"/>
		<path class="st0" d="M267.7,176c0.7,0,1.4-0.3,2-0.8c1.1-1.1,1.1-2.8,0-3.9c-1.1-1.1-2.8-1.1-3.9,0c-0.5,0.5-0.8,1.3-0.8,2
			c0,0.7,0.3,1.4,0.8,2C266.3,175.7,267,176,267.7,176z M266.6,172.1c0.6-0.6,1.6-0.6,2.2,0c0.6,0.6,0.6,1.6,0,2.2
			c-0.6,0.6-1.6,0.6-2.2,0C266,173.7,266,172.7,266.6,172.1z"/>
		<path class="st0" d="M281.5,159.4c0.5,0.5,1.2,0.8,2,0.8v-1.2c-0.4,0-0.8-0.2-1.1-0.5c-0.6-0.6-0.6-1.6,0-2.2
			c0.3-0.3,0.7-0.5,1.1-0.5v-1.2c-0.7,0-1.4,0.3-2,0.8C280.4,156.6,280.4,158.4,281.5,159.4z"/>
		<path class="st0" d="M187,281.5c-0.5,0.5-0.8,1.2-0.8,2h1.2c0-0.4,0.2-0.8,0.5-1.1c0.6-0.6,1.6-0.6,2.2,0c0.3,0.3,0.5,0.7,0.5,1.1
			h1.2c0-0.7-0.3-1.4-0.8-2C189.9,280.4,188.1,280.4,187,281.5z"/>
		<path class="st0" d="M202.8,265.7c-0.5,0.6-0.8,1.3-0.8,2s0.3,1.4,0.8,2c0.5,0.5,1.2,0.8,2,0.8c0.7,0,1.4-0.3,2-0.8
			c1.1-1.1,1.1-2.8,0-3.9C205.6,264.7,203.8,264.7,202.8,265.7z M205.8,268.8c-0.6,0.6-1.6,0.6-2.2,0c-0.6-0.6-0.6-1.6,0-2.2
			c0.6-0.6,1.6-0.6,2.2,0C206.5,267.2,206.5,268.2,205.8,268.8z"/>
		<path class="st0" d="M218.5,250c-0.5,0.5-0.8,1.2-0.8,2c0,0.8,0.3,1.5,0.8,2c0.5,0.5,1.3,0.8,2,0.8c0.7,0,1.4-0.3,2-0.8
			c1.1-1.1,1.1-2.8,0-3.9C221.4,248.9,219.6,248.9,218.5,250z M221.6,253.1c-0.6,0.6-1.6,0.6-2.2,0c-0.3-0.3-0.5-0.7-0.5-1.1
			c0-0.4,0.2-0.8,0.5-1.1c0.3-0.3,0.7-0.5,1.1-0.5c0.4,0,0.8,0.2,1.1,0.5C222.2,251.5,222.2,252.5,221.6,253.1z"/>
		<path class="st0" d="M234.3,234.3c-0.5,0.5-0.8,1.2-0.8,2c0,0.7,0.3,1.4,0.8,2c0.5,0.6,1.3,0.8,2,0.8c0.7,0,1.4-0.3,2-0.8
			c0.5-0.5,0.8-1.2,0.8-2c0-0.8-0.3-1.5-0.8-2C237.1,233.2,235.3,233.2,234.3,234.3z M237.3,237.3c-0.6,0.6-1.6,0.6-2.2,0
			c-0.3-0.3-0.5-0.7-0.5-1.1c0-0.4,0.2-0.8,0.5-1.1c0.3-0.3,0.7-0.5,1.1-0.5c0.4,0,0.8,0.2,1.1,0.5c0.3,0.3,0.5,0.7,0.5,1.1
			C237.8,236.6,237.6,237,237.3,237.3z"/>
		<path class="st0" d="M250,218.5c-1.1,1.1-1.1,2.9,0,3.9c0.5,0.5,1.3,0.8,2,0.8c0.7,0,1.4-0.3,2-0.8c0.5-0.5,0.8-1.2,0.8-2
			c0-0.8-0.3-1.5-0.8-2C252.9,217.4,251.1,217.4,250,218.5z M253.1,221.6c-0.6,0.6-1.6,0.6-2.2,0c-0.6-0.6-0.6-1.6,0-2.2
			c0.3-0.3,0.7-0.5,1.1-0.5c0.4,0,0.8,0.2,1.1,0.5c0.3,0.3,0.5,0.7,0.5,1.1C253.6,220.9,253.4,221.3,253.1,221.6z"/>
		<path class="st0" d="M265.8,202.8c-0.5,0.5-0.8,1.3-0.8,2c0,0.7,0.3,1.4,0.8,2c0.5,0.5,1.2,0.8,2,0.8c0.7,0,1.4-0.3,2-0.8
			c0.5-0.5,0.8-1.2,0.8-2s-0.3-1.4-0.8-2C268.6,201.7,266.8,201.7,265.8,202.8z M268.8,205.8c-0.6,0.6-1.6,0.6-2.2,0
			c-0.6-0.6-0.6-1.6,0-2.2c0.6-0.6,1.6-0.6,2.2,0c0.3,0.3,0.5,0.7,0.5,1.1C269.3,205.1,269.1,205.5,268.8,205.8z"/>
		<path class="st0" d="M281.5,190.9c0.5,0.5,1.2,0.8,2,0.8v-1.2c-0.3,0-0.7-0.1-1.1-0.4c-0.6-0.6-0.6-1.6,0-2.3
			c0.3-0.3,0.7-0.5,1.1-0.5v-1.2c-0.7,0-1.4,0.3-2,0.8C280.4,188.1,280.4,189.9,281.5,190.9z"/>
		<path class="st0" d="M218.5,281.5c-0.5,0.5-0.8,1.2-0.8,2h1.2c0-0.4,0.2-0.8,0.5-1.1c0.6-0.6,1.6-0.6,2.2,0
			c0.3,0.3,0.5,0.7,0.5,1.1h1.2c0-0.7-0.3-1.4-0.8-2C221.4,280.4,219.6,280.4,218.5,281.5z"/>
		<path class="st0" d="M234.3,265.7c-0.5,0.5-0.8,1.2-0.8,2s0.3,1.4,0.8,2c0.5,0.5,1.3,0.8,2,0.8c0.7,0,1.4-0.3,2-0.8
			c1.1-1.1,1.1-2.8,0-3.9C237.1,264.7,235.3,264.7,234.3,265.7z M237.3,268.8c-0.6,0.6-1.6,0.6-2.2,0c-0.3-0.3-0.5-0.7-0.5-1.1
			s0.2-0.8,0.5-1.1c0.3-0.3,0.7-0.5,1.1-0.5c0.4,0,0.8,0.2,1.1,0.5C238,267.2,238,268.2,237.3,268.8z"/>
		<path class="st0" d="M250,250c-0.5,0.5-0.8,1.2-0.8,2c0,0.8,0.3,1.5,0.8,2c0.5,0.5,1.3,0.8,2,0.8c0.7,0,1.4-0.3,2-0.8
			c0.5-0.5,0.8-1.2,0.8-2c0-0.7-0.3-1.4-0.8-2C252.9,248.9,251.1,248.9,250,250z M253.1,253.1c-0.6,0.6-1.6,0.6-2.2,0
			c-0.3-0.3-0.5-0.7-0.5-1.1c0-0.4,0.2-0.8,0.5-1.1c0.3-0.3,0.7-0.5,1.1-0.5c0.4,0,0.8,0.2,1.1,0.5c0.3,0.3,0.5,0.7,0.5,1.1
			C253.6,252.4,253.4,252.8,253.1,253.1z"/>
		<path class="st0" d="M265.8,234.3c-0.5,0.5-0.8,1.2-0.8,2c0,0.7,0.3,1.4,0.8,2c0.5,0.6,1.2,0.8,2,0.8c0.7,0,1.4-0.3,2-0.8
			c0.5-0.5,0.8-1.2,0.8-2c0-0.8-0.3-1.5-0.8-2C268.6,233.2,266.8,233.2,265.8,234.3z M268.8,237.3c-0.6,0.6-1.6,0.6-2.2,0
			c-0.6-0.6-0.6-1.6,0-2.2c0.6-0.6,1.6-0.6,2.2,0c0.3,0.3,0.5,0.7,0.5,1.1C269.3,236.6,269.1,237,268.8,237.3z"/>
		<path class="st0" d="M281.5,222.4c0.5,0.5,1.2,0.8,2,0.8V222c-0.3,0-0.7-0.1-1.1-0.5c-0.6-0.6-0.6-1.6,0-2.2
			c0.4-0.4,0.8-0.5,1.1-0.5v-1.2c-0.8,0-1.5,0.3-2,0.8C280.4,219.6,280.4,221.4,281.5,222.4z"/>
		<path class="st0" d="M250,281.5c-0.5,0.5-0.8,1.2-0.8,2h1.2c0-0.4,0.2-0.8,0.5-1.1c0.6-0.6,1.6-0.6,2.2,0c0.3,0.3,0.5,0.7,0.5,1.1
			h1.2c0-0.7-0.3-1.4-0.8-2C252.9,280.4,251.1,280.4,250,281.5z"/>
		<path class="st0" d="M265.8,265.7c-0.5,0.5-0.8,1.2-0.8,2s0.3,1.4,0.8,2c0.5,0.5,1.2,0.8,2,0.8c0.7,0,1.4-0.3,2-0.8
			c0.5-0.5,0.8-1.2,0.8-2s-0.3-1.4-0.8-2C268.6,264.7,266.8,264.7,265.8,265.7z M268.8,268.8c-0.3,0.3-0.7,0.5-1.1,0.5
			c-0.4,0-0.8-0.2-1.1-0.5c-0.3-0.3-0.5-0.7-0.5-1.1s0.2-0.8,0.5-1.1c0.3-0.3,0.7-0.5,1.1-0.5c0.4,0,0.8,0.2,1.1,0.5
			c0.3,0.3,0.5,0.7,0.5,1.1S269.1,268.5,268.8,268.8z"/>
		<path class="st0" d="M281.5,253.9c0.5,0.5,1.2,0.8,2,0.8v-1.2c-0.3,0-0.7-0.1-1.1-0.5c-0.6-0.6-0.6-1.6,0-2.2
			c0.3-0.3,0.7-0.5,1.1-0.5v-1.2c-0.7,0-1.4,0.3-2,0.8C280.4,251.1,280.4,252.8,281.5,253.9z"/>
		<path class="st0" d="M280.7,283.5h1.2c0-0.4,0.2-0.8,0.5-1.1c0.3-0.3,0.7-0.5,1.1-0.5v-1.2c-0.7,0-1.4,0.3-2,0.8
			C281,282,280.7,282.7,280.7,283.5z"/>
	</g>
</g>
<g id="Popis" class="st1">
	
		<rect x="44.7" y="170.6" transform="matrix(0.7071 0.7071 -0.7071 0.7071 167.8542 4.236)" class="st2" width="68.2" height="68.2"/>
	<text transform="matrix(0.7071 0.7071 -0.7071 0.7071 73.8316 170.4204)" class="st3"><tspan x="0" y="0" class="st4 st5 st6">Pattern 4</tspan><tspan x="0" y="12" class="st4 st7 st8">100 x 100 mm</tspan><tspan x="0" y="24" class="st4 st7 st8">tah 1.2 pt</tspan><tspan x="0" y="48" class="st4 st5 st8">outline</tspan></text>
</g>
</svg>
