<svg width="91" height="23" viewBox="0 0 91 23" fill="none" xmlns="http://www.w3.org/2000/svg">
<g clip-path="url(#clip0_901_4424)">
<path d="M11.7429 19.9017V21.7627H0V0.315308H11.4254V2.17627H2.06301V9.96657H10.4732V11.8275H2.06301V19.9017H11.7429Z" fill="white"/>
<path d="M16.7568 21.7627V0.315308H23.0408C25.453 0.315308 27.3147 1.07227 28.6266 2.58619C29.9385 4.10012 30.5944 6.1081 30.5944 8.61045V13.4361C30.5944 15.9591 29.9385 17.9779 28.6266 19.4918C27.3147 21.0057 25.453 21.7627 23.0408 21.7627H16.7568ZM23.0408 2.17627H18.8198V19.9017H23.0408C24.7971 19.9017 26.1353 19.3287 27.0558 18.1828C27.9759 17.0369 28.4362 15.4545 28.4362 13.4361V8.61045C28.4362 6.59169 27.9759 5.01488 27.0558 3.87943C26.1353 2.74399 24.7971 2.17627 23.0408 2.17627Z" fill="white"/>
<path d="M36.5615 0.315308H38.7197V14.0667C38.7197 15.9803 39.1164 17.4835 39.91 18.577C40.7034 19.6705 41.9464 20.217 43.6391 20.217C45.3529 20.217 46.6012 19.6705 47.384 18.577C48.1668 17.4835 48.5581 15.9803 48.5581 14.0667V0.315308H50.7164V14.0667C50.7164 16.611 50.1293 18.5823 48.9551 19.9806C47.7806 21.3789 46.0088 22.078 43.6391 22.078C41.2694 22.078 39.4973 21.3789 38.3231 19.9806C37.1489 18.5823 36.5615 16.611 36.5615 14.0667V0.315308Z" fill="white"/>
<path d="M56.9365 21.7627V0.315308H64.0457C66.3097 0.315308 68.0077 0.883029 69.1397 2.01847C70.2714 3.15391 70.8374 4.66784 70.8374 6.56024V8.23197C70.8374 10.1244 70.2714 11.6435 69.1397 12.7895C68.0077 13.9354 66.3097 14.5083 64.0457 14.5083H60.745V21.7627H56.9365ZM64.0457 3.94232H60.745V10.8813H64.0457C64.9768 10.8813 65.6907 10.6499 66.1881 10.1873C66.6853 9.72464 66.9337 9.07307 66.9337 8.23197V6.56024C66.9337 5.7401 66.6853 5.09902 66.1881 4.6364C65.6907 4.17378 64.9768 3.94232 64.0457 3.94232Z" fill="white"/>
<path d="M90.4193 8.76795V13.2783C90.4193 16.0118 89.7317 18.1618 88.3563 19.7282C86.9812 21.2948 84.9712 22.078 82.3264 22.078C79.6604 22.078 77.6452 21.2948 76.2806 19.7282C74.9157 18.1618 74.2334 16.0118 74.2334 13.2783V8.76795C74.2334 6.03444 74.9157 3.88991 76.2806 2.33377C77.6452 0.777924 79.6604 0 82.3264 0C84.9712 0 86.9812 0.777924 88.3563 2.33377C89.7317 3.88991 90.4193 6.03444 90.4193 8.76795ZM86.5157 8.76795C86.5157 7.04382 86.1773 5.74534 85.5 4.8728C84.8229 4.00025 83.7651 3.56383 82.3264 3.56383C80.8876 3.56383 79.8298 4.00025 79.1528 4.8728C78.4757 5.74534 78.1371 7.04382 78.1371 8.76795V13.2783C78.1371 15.0024 78.4757 16.3061 79.1528 17.1892C79.8298 18.0725 80.8876 18.5138 82.3264 18.5138C83.7651 18.5138 84.8229 18.0725 85.5 17.1892C86.1773 16.3061 86.5157 15.0024 86.5157 13.2783V8.76795Z" fill="white"/>
</g>
<defs>
<clipPath id="clip0_901_4424">
<rect width="90.4193" height="22.078" fill="white"/>
</clipPath>
</defs>
</svg>
