<svg width="38" height="38" viewBox="0 0 38 38" fill="none" xmlns="http://www.w3.org/2000/svg">
<path d="M32.1772 0H34.0491L37.971 9.50784H35.7426L35.089 7.90339H31.1076L30.454 9.50784H28.2256L32.1772 0ZM34.4947 6.23952L33.128 2.79293L31.7316 6.23952H34.4947Z" fill="white"/>
<path d="M3.23856 1.90193H0V0.000366211H8.55694V1.90193H5.34809V9.50821H3.23856V1.90193Z" fill="white"/>
<path d="M30.1572 28.4937H34.1386C35.0299 28.4937 35.8024 28.7908 36.4264 29.4147C37.0503 30.0387 37.3771 30.7518 37.3771 31.6431C37.3771 32.2671 37.2286 32.8019 36.9018 33.2773C36.5749 33.7527 36.1887 34.1092 35.6836 34.3469L38.0011 38.0015H35.6242L33.6335 34.852H32.237V38.0015H30.1572V28.4937ZM33.9009 32.9802C34.3169 32.9802 34.6437 32.8613 34.8814 32.6236C35.1191 32.3859 35.2676 32.0591 35.2676 31.6728C35.2676 31.3163 35.1488 31.0192 34.9408 30.7815C34.7031 30.5438 34.4357 30.4249 34.1089 30.4249H32.2668V33.0099H33.9009V32.9802Z" fill="white"/>
<path d="M5.11039 36.0701C4.24876 36.0701 3.53568 35.8027 2.97116 35.2085C2.40664 34.6143 2.10952 33.9309 2.10952 33.0692C2.10952 32.2076 2.40664 31.4945 2.97116 30.93C3.53568 30.3654 4.27847 30.0683 5.11039 30.0683C6.00174 30.0683 6.74453 30.3654 7.36847 30.9894L8.79463 29.7712C8.34896 29.2958 7.84386 28.9095 7.24963 28.6421C6.59597 28.3153 5.88289 28.1667 5.11039 28.1667C3.68424 28.1667 2.46606 28.6421 1.48558 29.5632C0.505097 30.4843 0 31.6728 0 33.0692C0 34.4657 0.505097 35.6245 1.48558 36.5752C2.46606 37.4963 3.68424 37.9717 5.11039 37.9717C5.85318 37.9717 6.56626 37.8231 7.24963 37.4963C7.84386 37.2289 8.34896 36.8427 8.79463 36.3673L7.36847 35.1491C6.74453 35.773 6.00174 36.0701 5.11039 36.0701Z" fill="white"/>
<path d="M5.05097 26.265L4.18933 25.3737H2.16895L4.1002 27.3644H6.00174L7.93299 25.3737H5.9126L5.05097 26.265Z" fill="white"/>
</svg>
