<svg viewBox="0 0 37 37" fill="none" xmlns="http://www.w3.org/2000/svg">
<g clip-path="url(#clip0_998_1161)">
<path d="M29.9 16.392C29.8993 16.3914 29.8988 16.3907 29.8982 16.3902L20.1081 6.6004C19.6908 6.18292 19.136 5.95312 18.5458 5.95312C17.9557 5.95312 17.4009 6.18292 16.9834 6.6004L7.19839 16.3852C7.19509 16.3885 7.19162 16.392 7.1885 16.3953C6.33157 17.2572 6.33303 18.6555 7.19271 19.5152C7.58548 19.9082 8.10403 20.1356 8.65866 20.1596C8.68136 20.1618 8.70407 20.1629 8.72696 20.1629H9.11697V27.3674C9.11697 28.7932 10.2771 29.9532 11.703 29.9532H15.5332C15.9216 29.9532 16.2363 29.6382 16.2363 29.25V23.6016C16.2363 22.951 16.7657 22.4218 17.4162 22.4218H19.6754C20.326 22.4218 20.8552 22.951 20.8552 23.6016V29.25C20.8552 29.6382 21.1699 29.9532 21.5583 29.9532H25.3885C26.8145 29.9532 27.9745 28.7932 27.9745 27.3674V20.1629H28.3363C28.9263 20.1629 29.4811 19.9331 29.8988 19.5154C30.7593 18.6544 30.7597 17.2535 29.9 16.392ZM28.9043 18.5211C28.7525 18.6729 28.5507 18.7566 28.3363 18.7566H27.2714C26.883 18.7566 26.5682 19.0714 26.5682 19.4597V27.3674C26.5682 28.0177 26.0391 28.5469 25.3885 28.5469H22.2614V23.6016C22.2614 22.1758 21.1014 21.0156 19.6754 21.0156H17.4162C15.9902 21.0156 14.8301 22.1758 14.8301 23.6016V28.5469H11.703C11.0526 28.5469 10.5232 28.0177 10.5232 27.3674V19.4597C10.5232 19.0714 10.2085 18.7566 9.8201 18.7566H8.77347C8.76248 18.7559 8.75168 18.7553 8.74051 18.7552C8.53103 18.7515 8.33456 18.6684 8.18734 18.521C7.87423 18.2078 7.87423 17.6983 8.18734 17.385C8.18753 17.385 8.18753 17.3848 8.18771 17.3846L8.18826 17.3841L17.978 7.59467C18.1296 7.44287 18.3312 7.35938 18.5458 7.35938C18.7602 7.35938 18.9618 7.44287 19.1136 7.59467L28.9012 17.382C28.9027 17.3835 28.9043 17.385 28.9058 17.3864C29.2172 17.7001 29.2167 18.2086 28.9043 18.5211Z" fill="currentColor"/>
</g>
<defs>
<clipPath id="clip0_998_1161">
<rect width="24" height="24" fill="currentColor" transform="translate(6.5 6)"/>
</clipPath>
</defs>
</svg>
