<svg viewBox="0 0 40 38" fill="none" xmlns="http://www.w3.org/2000/svg">
<path d="M29.2498 25.1285H33.1498M33.1498 35.8313H38.0247V28.8512H35.0997M23.3999 26.0592V21.4058H31.1998M33.1498 21.4058H38.0247V26.0592" stroke="currentColor" stroke-width="2"/>
<rect x="1" y="1" width="15.5497" height="14.7522" fill="#953DD5"/>
<rect x="1" y="1" width="15.5497" height="14.7522" fill="black" fill-opacity="0.2"/>
<rect x="1" y="1" width="15.5497" height="14.7522" stroke="currentColor" stroke-width="2"/>
<rect x="6.59912" y="6.33398" width="4.34991" height="4.08408" stroke="currentColor" stroke-width="1.5"/>
<rect x="22.4502" y="1" width="15.5497" height="14.7522" fill="#953DD5"/>
<rect x="22.4502" y="1" width="15.5497" height="14.7522" fill="black" fill-opacity="0.2"/>
<rect x="22.4502" y="1" width="15.5497" height="14.7522" stroke="currentColor" stroke-width="2"/>
<rect x="28.0498" y="6.33398" width="4.34991" height="4.08408" stroke="currentColor" stroke-width="1.5"/>
<rect x="1" y="21.4751" width="15.5497" height="14.7522" fill="#953DD5"/>
<rect x="1" y="21.4751" width="15.5497" height="14.7522" fill="black" fill-opacity="0.2"/>
<rect x="1" y="21.4751" width="15.5497" height="14.7522" stroke="currentColor" stroke-width="2"/>
<rect x="6.59912" y="26.8091" width="4.34991" height="4.08408" stroke="currentColor" stroke-width="1.5"/>
<rect x="22.2002" y="28.6704" width="8.24985" height="7.8068" fill="#953DD5"/>
<rect x="22.2002" y="28.6704" width="8.24985" height="7.8068" fill="black" fill-opacity="0.2"/>
<rect x="22.2002" y="28.6704" width="8.24985" height="7.8068" stroke="currentColor" stroke-width="1.5"/>
<rect x="22.4502" y="28.9204" width="7.74985" height="7.3068" fill="#953DD5"/>
<rect x="22.4502" y="28.9204" width="7.74985" height="7.3068" fill="black" fill-opacity="0.2"/>
<rect x="22.4502" y="28.9204" width="7.74985" height="7.3068" stroke="currentColor" stroke-width="2"/>
</svg>
