<svg viewBox="0 0 44 44" fill="none" xmlns="http://www.w3.org/2000/svg">
<path d="M23.6077 29.6417C23.887 28.8813 25.0022 28.8813 25.2816 29.6417L26.0456 31.7208C26.135 31.9642 26.3336 32.1557 26.586 32.2419L28.7421 32.9787C29.5306 33.2481 29.5306 34.3234 28.7421 34.5928L26.586 35.3295C26.3336 35.4157 26.135 35.6072 26.0456 35.8506L25.2816 37.9297C25.0022 38.6901 23.887 38.6901 23.6077 37.9297L22.8437 35.8506C22.7542 35.6072 22.5557 35.4157 22.3033 35.3295L20.1471 34.5928C19.3586 34.3234 19.3586 33.2481 20.1471 32.9787L22.3033 32.2419C22.5557 32.1557 22.7542 31.9642 22.8437 31.7208L23.6077 29.6417Z" stroke="white" stroke-width="1.4" stroke-linejoin="round"/>
<path d="M26.8391 6.36677C27.2638 5.21108 28.9587 5.21108 29.3834 6.36677L30.8389 10.3278C30.9748 10.6977 31.2766 10.9887 31.6603 11.1198L35.768 12.5233C36.9665 12.9328 36.9665 14.5672 35.768 14.9767L31.6603 16.3802C31.2766 16.5113 30.9748 16.8023 30.8389 17.1722L29.3834 21.1332C28.9587 22.2889 27.2638 22.2889 26.8391 21.1332L25.3837 17.1722C25.2477 16.8023 24.9459 16.5113 24.5623 16.3802L20.4546 14.9767C19.2561 14.5672 19.2561 12.9328 20.4546 12.5233L24.5623 11.1198C24.9459 10.9887 25.2477 10.6977 25.3837 10.3278L26.8391 6.36677Z" stroke="white" stroke-width="1.4" stroke-linejoin="round"/>
<path d="M11.8919 17.1653C12.2062 16.2782 13.4608 16.2782 13.7751 17.1653L14.6346 19.591C14.7352 19.8749 14.9586 20.0983 15.2425 20.1989L17.6682 21.0584C18.5553 21.3727 18.5553 22.6273 17.6682 22.9416L15.2425 23.8011C14.9586 23.9017 14.7352 24.1251 14.6346 24.409L13.7751 26.8347C13.4608 27.7218 12.2062 27.7218 11.8919 26.8347L11.0324 24.409C10.9318 24.1251 10.7084 23.9017 10.4245 23.8011L7.9988 22.9416C7.11173 22.6273 7.11173 21.3727 7.9988 21.0584L10.4245 20.1989C10.7084 20.0983 10.9318 19.8749 11.0324 19.591L11.8919 17.1653Z" stroke="white" stroke-width="1.4" stroke-linejoin="round"/>
</svg>
