<svg width="25" height="23" viewBox="0 0 25 23" fill="none" xmlns="http://www.w3.org/2000/svg">
<path d="M12.4578 2.1532C13.1196 1.68044 14.039 2.15356 14.039 2.96693V20.033C14.039 20.8464 13.1196 21.3195 12.4578 20.8468L6.70565 16.7381H3.46753C2.36296 16.7381 1.46753 15.8427 1.46753 14.7381V8.26187C1.46753 7.1573 2.36296 6.26186 3.46753 6.26186H6.70565L12.4578 2.1532Z" fill="#DAFEF3" stroke="#32B99C" stroke-width="1.5"/>
<path d="M16.0555 16.6472C17.3554 15.324 18.1572 13.5098 18.1572 11.5083C18.1572 9.49842 17.3486 7.67737 16.039 6.35272" stroke="#32B99C" stroke-width="2" stroke-linecap="round" stroke-linejoin="round"/>
<path d="M20.1572 3.35138C22.2426 5.43679 23.5325 8.31775 23.5325 11.5C23.5325 14.6822 22.2426 17.5632 20.1572 19.6486" stroke="#32B99C" stroke-width="2" stroke-linecap="round" stroke-linejoin="round"/>
</svg>
