<svg width="25" height="25" viewBox="0 0 25 25" fill="none" xmlns="http://www.w3.org/2000/svg">
<path d="M12.2551 0.983081C12.907 0.443252 13.8929 0.906892 13.8929 1.75328V22.8955C13.8929 23.7419 12.907 24.2055 12.2551 23.6657L6.22621 18.6732H2.75C1.64543 18.6732 0.75 17.7777 0.75 16.6732V7.97561C0.75 6.87104 1.64543 5.9756 2.75 5.9756H6.22621L12.2551 0.983081Z" fill="#DAFEF3" stroke="#32B99C" stroke-width="1.5"/>
<path d="M17.172 18.553C18.531 16.9492 19.3692 14.7503 19.3692 12.3244C19.3692 9.88838 18.5239 7.68121 17.1548 6.07568" stroke="#32B99C" stroke-width="2" stroke-linecap="round" stroke-linejoin="round"/>
<path d="M20.2212 2.44812C22.4014 4.97571 23.7499 8.46754 23.7499 12.3245C23.7499 16.1815 22.4014 19.6733 20.2212 22.2009" stroke="#32B99C" stroke-width="2" stroke-linecap="round" stroke-linejoin="round"/>
</svg>
