<svg width="23" height="23" viewBox="0 0 23 23" fill="none" xmlns="http://www.w3.org/2000/svg">
<path d="M15.7367 5.44739L7.2627 10.2895V12.7106L15.7367 18.1579" stroke="#4D91AC" stroke-width="1.5"/>
<path d="M4.2373 8.01318C6.16299 8.01336 7.72363 9.57488 7.72363 11.5005C7.72339 13.4259 6.16284 14.9866 4.2373 14.9868C2.31162 14.9868 0.750247 13.426 0.75 11.5005C0.75 9.57478 2.31147 8.01318 4.2373 8.01318Z" fill="#C2E5F7" stroke="#4D91AC" stroke-width="1.5"/>
<path d="M18.7632 0.75C20.6889 0.750172 22.2495 2.3117 22.2495 4.2373C22.2493 6.1627 20.6887 7.72346 18.7632 7.72363C16.8375 7.72363 15.2761 6.1628 15.2759 4.2373C15.2759 2.3116 16.8374 0.75 18.7632 0.75Z" fill="#C2E5F7" stroke="#4D91AC" stroke-width="1.5"/>
<path d="M18.7632 15.2762C20.6889 15.2764 22.2495 16.8379 22.2495 18.7635C22.2493 20.6889 20.6887 22.2497 18.7632 22.2499C16.8375 22.2499 15.2761 20.689 15.2759 18.7635C15.2759 16.8378 16.8374 15.2762 18.7632 15.2762Z" fill="#C2E5F7" stroke="#4D91AC" stroke-width="1.5"/>
</svg>
